<svg width="30" height="30" viewBox="0 0 30 30" fill="none" xmlns="http://www.w3.org/2000/svg">
<g opacity="0.9">
<path d="M15.0586 7.05885C15.4736 7.05885 16.4596 7.32129 16.4596 7.32129C19.1309 7.93342 21.0111 10.3939 21.0111 13.1719V20.2363C21.0111 20.5007 21.1158 20.7543 21.3023 20.9418L21.5572 21.1978C21.726 21.3673 21.6059 21.6562 21.3668 21.6562H8.63324C8.39409 21.6562 8.27405 21.3673 8.44277 21.1978L8.69766 20.9418C8.8842 20.7543 8.98893 20.5007 8.98893 20.2363V13.1719C8.98893 10.3939 10.8691 7.93342 13.5404 7.32129C13.5404 7.32129 14.5976 7.05885 14.9414 7.05885H15.0586ZM15 2.8125C13.9686 2.8125 13.1801 3.60457 13.1801 4.64062V5.49369C9.72223 6.28606 7.11393 9.45469 7.11393 13.1719V19.875L4.93876 22.0601C4.77784 22.2217 4.6875 22.4406 4.6875 22.6687C4.6875 23.1451 5.0737 23.5313 5.5501 23.5313H24.4499C24.9263 23.5313 25.3125 23.1451 25.3125 22.6687C25.3125 22.4406 25.2222 22.2217 25.0612 22.0601L22.8861 19.875V13.1719C22.8861 9.45469 20.2777 6.28606 16.8199 5.49369V4.64062C16.8199 3.60457 16.0314 2.8125 15 2.8125ZM17.4264 24.75H12.5735C12.5735 26.0907 13.6653 27.1875 15 27.1875C16.3347 27.1875 17.4264 26.0907 17.4264 24.75Z" fill="white"/>
<path d="M25.2143 9.64118C25.2143 11.732 23.5194 13.4269 21.4286 13.4269C19.3378 13.4269 17.6429 11.732 17.6429 9.64118C17.6429 7.55039 19.3378 5.85547 21.4286 5.85547C23.5194 5.85547 25.2143 7.55039 25.2143 9.64118Z" fill="#FF0000" stroke="white"/>
</g>
</svg>
