<svg width="375" height="88" viewBox="0 0 375 88" fill="none" xmlns="http://www.w3.org/2000/svg">
<rect width="375" height="88" fill="#0F50A4"/>
<path opacity="0.35" d="M336.5 19.9987C336.5 18.8021 337.47 17.832 338.667 17.832H355.333C356.53 17.832 357.5 18.8021 357.5 19.9987V25.9987C357.5 27.1953 356.53 28.1654 355.333 28.1654H338.667C337.47 28.1654 336.5 27.1953 336.5 25.9987V19.9987Z" stroke="white"/>
<path opacity="0.4" d="M359 21V25C359.805 24.6612 360.328 23.8731 360.328 23C360.328 22.1269 359.805 21.3388 359 21Z" fill="white"/>
<path d="M338 20.6654C338 19.929 338.597 19.332 339.333 19.332H354.667C355.403 19.332 356 19.929 356 20.6654V25.332C356 26.0684 355.403 26.6654 354.667 26.6654H339.333C338.597 26.6654 338 26.0684 338 25.332V20.6654Z" fill="white"/>
<path fill-rule="evenodd" clip-rule="evenodd" d="M323.33 19.6094C325.546 19.6095 327.677 20.4609 329.283 21.9877C329.404 22.1056 329.598 22.1041 329.717 21.9844L330.873 20.8177C330.933 20.757 330.967 20.6747 330.966 20.5891C330.966 20.5036 330.931 20.4217 330.87 20.3617C326.655 16.3221 320.005 16.3221 315.79 20.3617C315.729 20.4217 315.694 20.5035 315.694 20.5891C315.693 20.6746 315.727 20.7569 315.787 20.8177L316.943 21.9844C317.062 22.1043 317.256 22.1057 317.377 21.9877C318.983 20.4608 321.114 19.6094 323.33 19.6094ZM323.33 23.405C324.548 23.405 325.722 23.8575 326.624 24.6747C326.746 24.7907 326.939 24.7882 327.058 24.669L328.212 23.5024C328.273 23.4412 328.307 23.3581 328.306 23.2719C328.305 23.1856 328.27 23.1033 328.208 23.0434C325.459 20.487 321.204 20.487 318.455 23.0434C318.393 23.1033 318.358 23.1857 318.357 23.272C318.356 23.3582 318.39 23.4413 318.451 23.5024L319.605 24.669C319.724 24.7882 319.917 24.7907 320.039 24.6747C320.941 23.858 322.114 23.4055 323.33 23.405ZM325.643 25.9588C325.645 26.0454 325.611 26.1288 325.549 26.1894L323.552 28.205C323.493 28.2643 323.414 28.2976 323.33 28.2976C323.247 28.2976 323.167 28.2643 323.109 28.205L321.111 26.1894C321.049 26.1287 321.015 26.0453 321.017 25.9588C321.019 25.8723 321.056 25.7903 321.121 25.7324C322.396 24.6535 324.264 24.6535 325.54 25.7324C325.604 25.7904 325.642 25.8723 325.643 25.9588Z" fill="white"/>
<path fill-rule="evenodd" clip-rule="evenodd" d="M309.667 17.668H308.667C308.114 17.668 307.667 18.1157 307.667 18.668V27.3346C307.667 27.8869 308.114 28.3346 308.667 28.3346H309.667C310.219 28.3346 310.667 27.8869 310.667 27.3346V18.668C310.667 18.1157 310.219 17.668 309.667 17.668ZM304 20.0013H305C305.552 20.0013 306 20.449 306 21.0013V27.3346C306 27.8869 305.552 28.3346 305 28.3346H304C303.448 28.3346 303 27.8869 303 27.3346V21.0013C303 20.449 303.448 20.0013 304 20.0013ZM300.333 22.3346H299.333C298.781 22.3346 298.333 22.7824 298.333 23.3346V27.3346C298.333 27.8869 298.781 28.3346 299.333 28.3346H300.333C300.886 28.3346 301.333 27.8869 301.333 27.3346V23.3346C301.333 22.7824 300.886 22.3346 300.333 22.3346ZM295.667 24.3346H294.667C294.114 24.3346 293.667 24.7824 293.667 25.3346V27.3346C293.667 27.8869 294.114 28.3346 294.667 28.3346H295.667C296.219 28.3346 296.667 27.8869 296.667 27.3346V25.3346C296.667 24.7824 296.219 24.3346 295.667 24.3346Z" fill="white"/>
<path d="M37.3646 17.1675C35.0722 17.1675 33.4389 18.7349 33.4389 20.8809V20.8955C33.4389 22.9023 34.8598 24.3818 36.8886 24.3818C38.3388 24.3818 39.2616 23.6421 39.6498 22.8071H39.7963C39.7963 22.8877 39.789 22.9683 39.789 23.0488C39.7084 25.0703 38.9979 26.7109 37.3207 26.7109C36.3905 26.7109 35.7387 26.2275 35.4604 25.4878L35.4384 25.4146H33.578L33.5927 25.4951C33.9296 27.1138 35.3798 28.2637 37.3207 28.2637C39.9794 28.2637 41.5834 26.1543 41.5834 22.5947V22.5801C41.5834 18.7715 39.6205 17.1675 37.3646 17.1675ZM37.3573 22.9316C36.1562 22.9316 35.2846 22.0527 35.2846 20.8296V20.8149C35.2846 19.6357 36.2147 18.7056 37.3793 18.7056C38.5512 18.7056 39.4667 19.6504 39.4667 20.8589V20.8735C39.4667 22.0674 38.5512 22.9316 37.3573 22.9316ZM44.6086 21.1519C45.2824 21.1519 45.7731 20.6392 45.7731 19.9946C45.7731 19.3428 45.2824 18.8374 44.6086 18.8374C43.9421 18.8374 43.444 19.3428 43.444 19.9946C43.444 20.6392 43.9421 21.1519 44.6086 21.1519ZM44.6086 26.5864C45.2824 26.5864 45.7731 26.0811 45.7731 25.4292C45.7731 24.7773 45.2824 24.272 44.6086 24.272C43.9421 24.272 43.444 24.7773 43.444 25.4292C43.444 26.0811 43.9421 26.5864 44.6086 26.5864ZM52.7607 28H54.5698V25.9712H55.9907V24.4111H54.5698V17.4312H51.8965C50.4609 19.6138 48.9595 22.0454 47.5898 24.4258V25.9712H52.7607V28ZM49.3477 24.4551V24.3452C50.373 22.5508 51.5962 20.5952 52.6802 18.9399H52.79V24.4551H49.3477ZM60.0706 28H61.9603V17.4312H60.0779L57.3167 19.3721V21.1519L59.9461 19.2915H60.0706V28Z" fill="white"/>
<path d="M77.36 70V56H80.4L84.86 64.88L89.26 56H92.3V70H89.74V60.34L85.84 68H83.82L79.92 60.34V70H77.36ZM99.8163 70.24C98.8563 70.24 97.9896 70.02 97.2163 69.58C96.4563 69.14 95.8496 68.5333 95.3963 67.76C94.9563 66.9733 94.7363 66.0667 94.7363 65.04C94.7363 64.0133 94.9629 63.1133 95.4163 62.34C95.8696 61.5533 96.4763 60.94 97.2363 60.5C98.0096 60.06 98.8763 59.84 99.8363 59.84C100.783 59.84 101.636 60.06 102.396 60.5C103.17 60.94 103.776 61.5533 104.216 62.34C104.67 63.1133 104.896 64.0133 104.896 65.04C104.896 66.0667 104.67 66.9733 104.216 67.76C103.776 68.5333 103.17 69.14 102.396 69.58C101.623 70.02 100.763 70.24 99.8163 70.24ZM99.8163 68.02C100.483 68.02 101.063 67.7733 101.556 67.28C102.05 66.7733 102.296 66.0267 102.296 65.04C102.296 64.0533 102.05 63.3133 101.556 62.82C101.063 62.3133 100.49 62.06 99.8363 62.06C99.1563 62.06 98.5696 62.3133 98.0763 62.82C97.5963 63.3133 97.3563 64.0533 97.3563 65.04C97.3563 66.0267 97.5963 66.7733 98.0763 67.28C98.5696 67.7733 99.1496 68.02 99.8163 68.02ZM113.165 70.24C112.418 70.24 111.765 70.1 111.205 69.82C110.645 69.54 110.192 69.1467 109.845 68.64L109.565 70H107.285V55.6H109.845V61.5C110.165 61.06 110.585 60.6733 111.105 60.34C111.638 60.0067 112.325 59.84 113.165 59.84C114.098 59.84 114.932 60.0667 115.665 60.52C116.398 60.9733 116.978 61.5933 117.405 62.38C117.832 63.1667 118.045 64.06 118.045 65.06C118.045 66.06 117.832 66.9533 117.405 67.74C116.978 68.5133 116.398 69.1267 115.665 69.58C114.932 70.02 114.098 70.24 113.165 70.24ZM112.625 68C113.438 68 114.112 67.7267 114.645 67.18C115.178 66.6333 115.445 65.9267 115.445 65.06C115.445 64.1933 115.178 63.48 114.645 62.92C114.112 62.36 113.438 62.08 112.625 62.08C111.798 62.08 111.118 62.36 110.585 62.92C110.065 63.4667 109.805 64.1733 109.805 65.04C109.805 65.9067 110.065 66.62 110.585 67.18C111.118 67.7267 111.798 68 112.625 68ZM121.812 58.54C121.345 58.54 120.959 58.4 120.652 58.12C120.359 57.84 120.212 57.4867 120.212 57.06C120.212 56.6333 120.359 56.2867 120.652 56.02C120.959 55.74 121.345 55.6 121.812 55.6C122.279 55.6 122.659 55.74 122.952 56.02C123.259 56.2867 123.412 56.6333 123.412 57.06C123.412 57.4867 123.259 57.84 122.952 58.12C122.659 58.4 122.279 58.54 121.812 58.54ZM120.532 70V60.08H123.092V70H120.532ZM125.864 70V55.6H128.424V70H125.864ZM135.96 70.24C134.96 70.24 134.073 70.0267 133.3 69.6C132.527 69.1733 131.92 68.5733 131.48 67.8C131.04 67.0267 130.82 66.1333 130.82 65.12C130.82 64.0933 131.033 63.18 131.46 62.38C131.9 61.58 132.5 60.96 133.26 60.52C134.033 60.0667 134.94 59.84 135.98 59.84C136.953 59.84 137.813 60.0533 138.56 60.48C139.307 60.9067 139.887 61.4933 140.3 62.24C140.727 62.9733 140.94 63.7933 140.94 64.7C140.94 64.8467 140.933 65 140.92 65.16C140.92 65.32 140.913 65.4867 140.9 65.66H133.36C133.413 66.4333 133.68 67.04 134.16 67.48C134.653 67.92 135.247 68.14 135.94 68.14C136.46 68.14 136.893 68.0267 137.24 67.8C137.6 67.56 137.867 67.2533 138.04 66.88H140.64C140.453 67.5067 140.14 68.08 139.7 68.6C139.273 69.1067 138.74 69.5067 138.1 69.8C137.473 70.0933 136.76 70.24 135.96 70.24ZM135.98 61.92C135.353 61.92 134.8 62.1 134.32 62.46C133.84 62.8067 133.533 63.34 133.4 64.06H138.34C138.3 63.4067 138.06 62.8867 137.62 62.5C137.18 62.1133 136.633 61.92 135.98 61.92Z" fill="#F2F2F2"/>
<path fill-rule="evenodd" clip-rule="evenodd" d="M27.598 56.2618C27.5915 56.2679 27.4139 56.2936 27.2032 56.3188C26.9926 56.344 26.7692 56.3775 26.7068 56.3932C26.6444 56.4089 26.4848 56.4464 26.3522 56.4765C26.2196 56.5067 26.0855 56.5429 26.0543 56.5571C26.0231 56.5713 25.9657 56.5915 25.9267 56.602C25.7439 56.6512 25.3105 56.8295 24.9715 56.9952C24.6162 57.1687 24.4797 57.2459 24.2025 57.4297C24.1357 57.474 24.0687 57.5102 24.0536 57.5102C24.0384 57.5102 24.026 57.5207 24.026 57.5335C24.026 57.5463 23.9654 57.5961 23.8913 57.6441C23.8172 57.6921 23.7182 57.7637 23.6714 57.803C23.2834 58.1293 22.959 58.4384 22.7443 58.6864C22.6711 58.7708 22.585 58.8701 22.5528 58.9072C22.5205 58.9442 22.4942 58.9827 22.4942 58.9928C22.4942 59.003 22.4718 59.0357 22.4445 59.0656C22.2894 59.2352 21.9627 59.7438 21.7983 60.0716C21.7519 60.164 21.7074 60.2459 21.6993 60.2536C21.6249 60.3244 21.2749 61.2944 21.1861 61.6763C20.9336 62.7611 20.9382 63.9418 21.1989 64.9984C21.2838 65.3428 21.3869 65.6888 21.4156 65.7263C21.4275 65.7416 21.4532 65.8046 21.4729 65.8662C21.4925 65.9278 21.5248 66.0097 21.5446 66.0482C21.5644 66.0867 21.6403 66.2441 21.7134 66.3981C21.7864 66.5521 21.9025 66.7698 21.9715 66.882C22.0406 66.9941 22.097 67.097 22.097 67.1106C22.097 67.1242 22.1071 67.1394 22.1195 67.1446C22.1319 67.1497 22.1718 67.2021 22.2082 67.261C22.268 67.3576 22.5049 67.6651 22.7188 67.9237C22.8783 68.1166 23.3566 68.5756 23.611 68.7799C23.9395 69.0437 23.9495 69.0512 24.1537 69.184C24.2473 69.2449 24.3367 69.3048 24.3523 69.317C24.5133 69.4435 25.4392 69.8846 25.7139 69.9657C25.7763 69.9841 25.8529 70.0106 25.8841 70.0245C26.1339 70.1363 26.966 70.3115 27.4727 70.3591C27.6389 70.3747 29.7717 70.3862 32.6215 70.3869L37.4866 70.388L37.0352 70.8145C35.9492 71.8403 34.4563 73.3446 33.6694 74.2061C33.6001 74.2819 33.518 74.3698 33.4867 74.4014C33.4555 74.4329 33.3853 74.5107 33.3307 74.5743C33.2308 74.6905 32.8613 75.1094 32.7621 75.2188C32.6864 75.3024 32.1374 75.9612 32.0624 76.0585C31.9505 76.2036 31.5409 76.7263 31.5013 76.7744C31.4801 76.8001 31.4492 76.8464 31.4325 76.8772C31.4157 76.908 31.3859 76.95 31.3662 76.9704C31.2196 77.1222 30.2954 78.6066 30.2954 78.6902C30.2954 78.6995 30.2631 78.7705 30.2236 78.8479C30.1842 78.9255 30.1569 78.9937 30.1629 78.9997C30.169 79.0057 30.2619 78.9128 30.3694 78.7933C30.8344 78.2763 32.1577 77.0008 32.7337 76.5143C32.8499 76.4161 32.9758 76.3078 33.0134 76.2737C33.051 76.2396 33.2047 76.1136 33.3551 75.9939C33.5055 75.8741 33.6432 75.7635 33.6611 75.748C33.6789 75.7325 33.7349 75.6884 33.7855 75.6499C33.836 75.6114 33.9172 75.5476 33.9658 75.5082C34.0689 75.4245 34.424 75.1541 34.5241 75.0831C34.7679 74.9101 34.9089 74.8088 34.9335 74.7886C34.9491 74.7759 35.0449 74.7094 35.1463 74.6408C35.2477 74.5723 35.337 74.5083 35.3449 74.4986C35.3527 74.4889 35.4867 74.3983 35.6427 74.2971C35.7987 74.1959 35.9418 74.0999 35.9607 74.0837C35.9795 74.0675 36.0021 74.0543 36.011 74.0543C36.0198 74.0543 36.0885 74.0133 36.1636 73.9633C36.2386 73.9133 36.3928 73.8156 36.5061 73.7464C36.6194 73.6771 36.7523 73.5947 36.8015 73.5634C36.9612 73.4615 38.0448 72.873 38.3944 72.6983C38.701 72.545 38.93 72.4379 39.3589 72.2471C39.7651 72.0665 39.8303 72.0388 39.8495 72.0388C39.861 72.0388 39.9149 72.0153 39.9693 71.9867C40.0236 71.9581 40.1 71.9252 40.139 71.9136C40.178 71.902 40.2483 71.8754 40.2951 71.8544C40.4118 71.8021 41.0766 71.5702 41.3021 71.5031C41.4035 71.4729 41.512 71.4372 41.5433 71.4236C41.6376 71.3825 42.6937 71.1022 42.9894 71.0396C43.4022 70.9524 43.9426 70.86 44.4226 70.7947C44.9112 70.7282 45.375 70.6369 45.4864 70.5854C45.5176 70.5709 45.6116 70.5378 45.6952 70.5118C46.0047 70.4156 46.3738 70.1707 46.6385 69.8859C46.832 69.6777 46.8458 69.6602 46.9057 69.5447C46.933 69.4923 46.9638 69.4431 46.9742 69.4354C47.0034 69.4138 47.162 69.0771 47.2433 68.864C47.3286 68.6403 47.3807 68.4617 47.4727 68.0777C47.5095 67.9237 47.5737 67.6592 47.6153 67.4898C47.6568 67.3205 47.721 67.0559 47.7579 66.902C47.7948 66.748 47.8577 66.4898 47.8977 66.3281C47.9376 66.1664 48.0019 65.9051 48.0404 65.7472C48.0789 65.5894 48.142 65.3312 48.1805 65.1734C48.219 65.0156 48.2832 64.7542 48.3232 64.5925C48.4079 64.2499 48.5114 63.8256 48.6064 63.4308C48.7239 62.9428 48.7294 62.9412 48.7321 63.3947C48.7346 63.8227 48.7737 64.3114 48.8189 64.4805C48.8333 64.5344 48.8666 64.6982 48.8928 64.8445C48.919 64.9907 48.9516 65.1224 48.9652 65.137C48.9788 65.1516 48.9898 65.1872 48.9898 65.216C48.9898 65.3092 49.3385 66.2583 49.388 66.3001C49.3972 66.3078 49.4647 66.4338 49.5381 66.5801C49.6114 66.7263 49.6872 66.8708 49.7065 66.9012C49.8507 67.1284 50.0793 67.4632 50.1126 67.496C50.1348 67.5179 50.153 67.5444 50.153 67.5548C50.153 67.5742 50.1931 67.6238 50.4285 67.8957C50.5903 68.0827 51.1481 68.6283 51.3156 68.7635C51.3823 68.8174 51.4704 68.8899 51.5112 68.9247C51.5521 68.9594 51.6078 68.9949 51.6352 69.0035C51.6625 69.0122 51.6848 69.029 51.6848 69.0409C51.6848 69.0529 51.7295 69.0864 51.7841 69.1154C51.8387 69.1444 51.8834 69.175 51.8834 69.1834C51.8834 69.1918 51.9312 69.2235 51.9898 69.2538C52.0483 69.2841 52.1025 69.3167 52.1103 69.3262C52.1181 69.3358 52.1692 69.366 52.2238 69.3934C52.2784 69.4208 52.3295 69.4514 52.3373 69.4615C52.3746 69.5097 53.2288 69.8991 53.4152 69.953C53.4543 69.9643 53.5245 69.9901 53.5713 70.0104C53.7641 70.0939 54.2804 70.2175 54.9329 70.3362C55.0518 70.3579 56.6664 70.3705 60.2909 70.378C65.2552 70.3884 65.4781 70.3867 65.4642 70.339C65.4563 70.3116 65.144 69.7475 64.7702 69.0855L64.0907 67.8817L61.7245 67.8653C60.2512 67.8551 59.3155 67.838 59.2449 67.82C58.7894 67.7044 58.65 67.6621 58.4439 67.5773C58.1943 67.4746 57.8915 67.315 57.7234 67.1978C57.6668 67.1583 57.5913 67.107 57.5557 67.0839C57.3993 66.9824 57.0349 66.6378 56.8452 66.4121C56.5983 66.1183 56.4634 65.8898 56.1921 65.3064C56.1487 65.2131 56.0496 64.8712 56.0013 64.6485C55.935 64.3423 55.9352 62.3269 56.0017 62.0171C56.055 61.7685 56.1618 61.4004 56.1923 61.3599C56.2042 61.3442 56.2369 61.2699 56.265 61.1949C56.3223 61.0421 56.5421 60.6434 56.6326 60.5282C56.6651 60.4868 56.7361 60.3924 56.7904 60.3183C56.9207 60.1404 57.3696 59.7016 57.5295 59.5958C57.5992 59.5496 57.6626 59.5044 57.6704 59.4953C57.744 59.4091 58.386 59.0859 58.635 59.0096C58.7208 58.9834 58.8165 58.9511 58.8477 58.9379C58.9292 58.9034 59.1434 58.8619 59.4939 58.8128C59.7469 58.7773 60.169 58.7699 61.9344 58.7699C64.3381 58.7699 64.0904 58.7943 64.2154 58.5453C64.2501 58.4764 64.316 58.357 64.362 58.28C64.408 58.203 64.4993 58.0393 64.565 57.9161C64.6306 57.7929 64.7083 57.6587 64.7376 57.6179C64.7668 57.577 64.7908 57.5306 64.7908 57.5149C64.7908 57.4991 64.8067 57.4696 64.8263 57.4492C64.8458 57.4289 64.89 57.3555 64.9246 57.2863C64.9593 57.217 65.0258 57.0973 65.0726 57.0203C65.1194 56.9433 65.1754 56.8426 65.1971 56.7964C65.2188 56.7502 65.2958 56.6137 65.3683 56.4931C65.4407 56.3725 65.5 56.2686 65.5 56.2622C65.5 56.2558 63.2373 56.2506 60.4718 56.2507C55.5782 56.2508 55.4318 56.2524 55.0039 56.3078C54.4407 56.3808 53.6523 56.5687 53.3727 56.6967C53.3415 56.7109 53.1928 56.7734 53.0422 56.8354C52.8915 56.8975 52.7256 56.9717 52.6734 57.0004C52.6211 57.0291 52.4954 57.0955 52.394 57.1481C52.2926 57.2007 52.1968 57.2538 52.1812 57.266C52.1656 57.2783 52.0699 57.3402 51.9685 57.4037C51.8671 57.4672 51.7506 57.5454 51.7096 57.5776C51.6687 57.6098 51.5991 57.6614 51.555 57.6922C51.031 58.0581 50.3069 58.8205 49.9199 59.4138C49.6965 59.7564 49.6615 59.8159 49.4968 60.1346C49.4152 60.2924 49.3399 60.4215 49.3295 60.4215C49.3116 60.4215 48.8601 60.7569 48.6839 60.9011C48.6393 60.9375 48.5598 60.9989 48.5073 61.0374C48.4547 61.0759 48.2949 61.2018 48.1521 61.3173C48.0093 61.4328 47.8501 61.5587 47.7983 61.5972C47.7466 61.6357 47.5867 61.7617 47.4432 61.8772C47.2996 61.9926 47.1389 62.1207 47.086 62.1617C47.0332 62.2027 46.958 62.2633 46.919 62.2963C46.7581 62.4328 46.5838 62.5739 46.0538 62.9972C45.4613 63.4704 45.4281 63.4972 45.3388 63.5751C45.1919 63.7032 45.1468 63.7405 44.919 63.9218C44.6827 64.1099 44.6128 64.1676 44.4788 64.2846C44.4347 64.3231 44.3791 64.3702 44.3553 64.3893C44.2017 64.5127 43.8886 64.7702 43.8411 64.8124C43.8099 64.8401 43.6567 64.9674 43.5006 65.0954C43.3446 65.2233 43.2106 65.337 43.2028 65.348C43.195 65.359 43.112 65.4291 43.0184 65.5037C42.9248 65.5783 42.8341 65.6526 42.8169 65.6688C42.7658 65.7169 42.5012 65.9415 42.1532 66.2322C41.9737 66.382 41.8205 66.513 41.8127 66.5233C41.8049 66.5335 41.6964 66.629 41.5716 66.7354C41.3396 66.9332 41.2999 66.9673 41.0043 67.2235C40.9106 67.3046 40.7522 67.4418 40.6522 67.5284C40.5522 67.6149 40.4296 67.7236 40.3798 67.7698C40.3299 67.816 40.1948 67.9356 40.0796 68.0357C39.9644 68.1358 39.8369 68.2492 39.7963 68.2876C39.7557 68.3261 39.6232 68.4452 39.5018 68.5522C39.3803 68.6592 39.2464 68.7789 39.2042 68.8181C39.162 68.8574 39.0637 68.9462 38.9858 69.0155C38.702 69.2678 38.163 69.7628 37.927 69.9877C37.7388 70.1671 37.6789 70.2098 37.6568 70.1804C37.6412 70.1597 37.3412 69.6311 36.9902 69.0057L36.3519 67.8687L34.0967 67.8667C32.374 67.8652 31.7878 67.856 31.6145 67.8279C31.3626 67.787 30.921 67.677 30.8769 67.6442C30.8613 67.6326 30.7975 67.6071 30.7351 67.5876C30.6726 67.568 30.5193 67.4995 30.3944 67.4354C29.8918 67.1775 29.4141 66.7899 29.0897 66.3768C29.0741 66.357 29.0221 66.2907 28.9741 66.2294C28.8899 66.122 28.6216 65.6982 28.6216 65.6727C28.6216 65.6658 28.5846 65.5806 28.5393 65.4833C28.494 65.386 28.4407 65.2497 28.4208 65.1804C28.401 65.1111 28.3757 65.0418 28.3648 65.0264C28.3538 65.011 28.3232 64.8788 28.2968 64.7325C28.2704 64.5862 28.237 64.4137 28.2225 64.3492C28.1864 64.1884 28.189 62.5141 28.2257 62.3087C28.2993 61.8967 28.3476 61.665 28.3655 61.6392C28.3761 61.6238 28.4011 61.5545 28.421 61.4853C28.5576 61.0107 28.9933 60.3204 29.4 59.9342C30.0269 59.3391 30.749 58.9757 31.5861 58.8339C31.8319 58.7923 32.1705 58.7839 34.1218 58.7709L36.3738 58.7559L36.5138 58.49C36.5908 58.3437 36.6896 58.1666 36.7332 58.0965C36.7769 58.0264 36.8215 57.9414 36.8324 57.9076C36.8433 57.8738 36.8627 57.8461 36.8756 57.8461C36.8884 57.8461 36.9206 57.7926 36.9471 57.7272C36.9737 57.6618 37.0038 57.602 37.0141 57.5943C37.0379 57.5763 37.083 57.4976 37.2386 57.2023C37.3486 56.9935 37.4155 56.8764 37.5505 56.6564C37.5777 56.612 37.6869 56.402 37.7506 56.2715C37.7609 56.2504 27.6202 56.2407 27.598 56.2618Z" fill="white"/>
<path fill-rule="evenodd" clip-rule="evenodd" d="M45.5837 47.0143C45.2781 47.0477 45.0516 47.0918 44.8286 47.1613C44.3231 47.3189 43.7111 47.6514 43.4039 47.9354C43.0112 48.2985 42.9766 48.3344 42.7483 48.6174C42.5761 48.831 42.2799 49.371 42.2067 49.6053C42.1872 49.6676 42.1619 49.7313 42.1504 49.7469C42.1389 49.7625 42.0925 49.9218 42.0472 50.1009C41.9689 50.4108 41.965 50.4568 41.965 51.0497C41.965 51.6059 41.972 51.7001 42.0302 51.9276C42.2378 52.739 42.5801 53.3542 43.1332 53.9098C43.2449 54.022 43.5392 54.2711 43.5992 54.3042C43.625 54.3185 43.6525 54.3379 43.6603 54.3474C43.6682 54.3568 43.7066 54.3848 43.7458 54.4095C43.8113 54.4507 43.8378 54.45 44.0735 54.4003C44.2146 54.3705 44.5159 54.322 44.7431 54.2925C44.9703 54.2629 45.2204 54.2255 45.2987 54.2093C45.3771 54.1931 45.5758 54.154 45.7404 54.1225C46.1965 54.0351 46.8728 53.8689 47.2363 53.755C47.7299 53.6004 48.6002 53.2954 48.7786 53.2146C48.8454 53.1844 48.9091 53.1596 48.9201 53.1596C48.9736 53.1596 49.6627 52.8334 49.6922 52.7941C49.7409 52.7293 49.9176 52.222 49.9841 51.956C50.1696 51.2137 50.104 50.3033 49.8122 49.5705C49.7246 49.3505 49.4709 48.8586 49.403 48.7771C49.3802 48.7497 49.3242 48.6799 49.2787 48.622C49.2331 48.5641 49.187 48.5255 49.1762 48.5362C49.1655 48.5469 49.1638 48.5369 49.1726 48.5141C49.1939 48.4587 48.5927 47.8711 48.422 47.7803C48.3899 47.7632 48.3298 47.718 48.2883 47.6798C48.2469 47.6417 48.1856 47.6019 48.1521 47.5916C48.1186 47.5812 48.0847 47.5632 48.0769 47.5517C48.0455 47.5055 47.5921 47.2968 47.3645 47.2238C47.2313 47.1811 47.0967 47.1357 47.0654 47.1228C46.8475 47.0336 45.9849 46.9704 45.5837 47.0143ZM58.4122 48.2738C58.3426 48.3604 58.0989 48.6246 57.836 48.8983C57.789 48.9472 57.7107 49.0308 57.662 49.0839C57.6133 49.137 57.4819 49.2679 57.3699 49.3747C57.258 49.4816 57.1664 49.5803 57.1664 49.5942C57.1664 49.6081 57.1541 49.6194 57.139 49.6194C57.1239 49.6194 56.9964 49.731 56.8557 49.8673C56.715 50.0036 56.5135 50.1915 56.408 50.285C56.3024 50.3785 56.1575 50.5072 56.0858 50.5712C55.8816 50.7534 55.412 51.1556 55.3124 51.2338C55.2627 51.2727 55.1883 51.3324 55.1471 51.3663C54.9642 51.5171 54.6901 51.7341 54.6171 51.786C54.5734 51.8172 54.4821 51.8873 54.4145 51.9418C54.1849 52.1267 53.4702 52.644 53.2992 52.749C53.1993 52.8102 53.1525 52.8594 53.1689 52.8858C53.1784 52.901 53.1723 52.905 53.1555 52.8947C53.1386 52.8843 53.0077 52.9556 52.8646 53.0531C52.7214 53.1506 52.5697 53.2496 52.5275 53.273C52.4853 53.2964 52.4103 53.3442 52.3608 53.3792C52.3114 53.4142 52.258 53.4428 52.2421 53.4428C52.2262 53.4428 52.209 53.4529 52.2037 53.4651C52.1985 53.4774 52.0917 53.5469 51.9663 53.6197C51.8409 53.6924 51.7255 53.7627 51.7099 53.7758C51.6942 53.7889 51.4249 53.9403 51.1115 54.1121C50.2665 54.5754 49.9743 54.7181 48.832 55.2252C48.7693 55.2531 48.609 55.3173 48.4758 55.3681C48.3426 55.4188 48.1951 55.4761 48.1481 55.4954C47.968 55.5692 47.222 55.8219 46.9086 55.9153C46.3467 56.0827 46.1103 56.1434 45.3557 56.3144C45.1417 56.3629 44.615 56.4476 44.0922 56.5176C43.9144 56.5414 43.7156 56.5722 43.6505 56.586C43.2906 56.6622 43.0223 56.7302 42.9942 56.7523C42.9766 56.7661 42.911 56.7935 42.8483 56.8132C42.7185 56.8541 42.4994 56.9701 42.3024 57.1022C42.1651 57.1944 41.7797 57.5671 41.7797 57.6078C41.7797 57.6202 41.7614 57.6486 41.7389 57.6709C41.683 57.7265 41.4328 58.2112 41.3704 58.3849C41.3423 58.4628 41.308 58.552 41.294 58.5832C41.265 58.6482 41.1794 58.9658 41.0805 59.3762C41.0429 59.5319 40.9793 59.7932 40.9392 59.9568C40.8206 60.4397 40.691 60.9761 40.5116 61.7268C40.4744 61.8826 40.4096 62.1502 40.3677 62.3216C40.3258 62.4929 40.262 62.7542 40.2258 62.9022C40.1897 63.0502 40.1258 63.3114 40.0838 63.4828C40.0012 63.8195 39.882 64.3227 39.7886 64.7289C39.7564 64.8691 39.7168 65.0284 39.7008 65.0829C39.6847 65.1374 39.6203 65.3987 39.5577 65.6635C39.4951 65.9283 39.4322 66.1832 39.418 66.2299C39.3567 66.4321 39.2369 66.983 39.2512 66.9972C39.2598 67.0058 39.2905 66.9937 39.3194 66.9704C39.3484 66.9471 39.5195 66.8094 39.6997 66.6644C39.8799 66.5195 40.0466 66.3853 40.0701 66.3663C40.1102 66.3338 40.3204 66.1695 40.5705 65.975C40.6306 65.9283 40.7589 65.8264 40.8556 65.7485C40.9522 65.6706 41.0802 65.5686 41.1399 65.5219C41.1997 65.4752 41.2815 65.4089 41.3218 65.3746C41.3621 65.3403 41.4726 65.2511 41.5673 65.1764C41.662 65.1016 41.7581 65.0246 41.781 65.0052C41.8556 64.9418 42.2945 64.5891 42.3907 64.5152C42.4423 64.4755 42.5037 64.4245 42.5271 64.4019C42.5505 64.3792 42.6131 64.3263 42.6662 64.2843C42.8195 64.163 43.478 63.6213 43.7743 63.3728C43.9232 63.248 44.0578 63.1359 44.0735 63.1238C44.1709 63.0486 44.867 62.4674 45.0004 62.3499C45.0889 62.272 45.1922 62.184 45.23 62.1543C45.2907 62.1065 45.3966 62.0176 45.5837 61.8572C45.615 61.8304 45.7304 61.734 45.8401 61.6431C45.9498 61.5522 46.0716 61.4479 46.1108 61.4113C46.15 61.3747 46.2141 61.3182 46.2533 61.2858C46.422 61.1459 46.8462 60.7804 46.9999 60.6426C47.0916 60.5603 47.1939 60.471 47.2271 60.4443C47.2603 60.4176 47.3465 60.3433 47.4186 60.2792C47.4907 60.2152 47.6267 60.0954 47.7207 60.0132C48.3579 59.4556 48.5688 59.2678 48.6458 59.1896C48.6855 59.1493 48.7949 59.0521 48.889 58.9735C48.983 58.895 49.1263 58.7686 49.2074 58.6928C49.2885 58.6169 49.4339 58.4847 49.5304 58.3991C49.627 58.3134 49.768 58.186 49.8437 58.1159C49.9195 58.0458 50.1203 57.861 50.29 57.7053C50.4597 57.5496 50.714 57.3121 50.855 57.1775C50.9961 57.0429 51.2062 56.8453 51.322 56.7384C51.8981 56.2065 53.0066 55.1083 54.0911 53.9951C54.1222 53.9633 54.2638 53.8147 54.5627 53.5004C54.7815 53.2703 55.3454 52.6538 55.4233 52.5594C55.4797 52.4911 55.5718 52.3851 55.8739 52.0402C55.9971 51.8996 56.2261 51.6256 56.3828 51.4313C56.5395 51.237 56.6746 51.0716 56.683 51.0638C56.6913 51.056 56.7484 50.9796 56.8098 50.8939C56.8712 50.8082 56.9509 50.7077 56.987 50.6706C57.023 50.6334 57.0525 50.5929 57.0525 50.5805C57.0525 50.5682 57.0685 50.5409 57.0881 50.52C57.151 50.4526 57.2928 50.2614 57.4093 50.0867C57.4716 49.9933 57.5297 49.9104 57.5384 49.9027C57.5611 49.8823 57.8133 49.4879 57.9684 49.2304C58.1351 48.9535 58.4841 48.2883 58.4627 48.2883C58.4539 48.2883 58.4604 48.2629 58.4772 48.2317C58.5215 48.1492 58.5019 48.1619 58.4122 48.2738Z" fill="#ED1E26"/>
</svg>
