<svg width="25" height="28" viewBox="0 0 25 28" fill="none" xmlns="http://www.w3.org/2000/svg">
<path fill-rule="evenodd" clip-rule="evenodd" d="M5.99162 7.34171C5.53601 6.8861 4.79732 6.8861 4.34171 7.34171C3.8861 7.79732 3.8861 8.53601 4.34171 8.99162L9.29203 13.9419L4.34286 18.8911C3.88724 19.3467 3.88725 20.0854 4.34286 20.541C4.79847 20.9966 5.53716 20.9966 5.99277 20.541L10.9419 15.5919L15.8911 20.541C16.3467 20.9966 17.0854 20.9966 17.541 20.541C17.9966 20.0854 17.9966 19.3467 17.541 18.8911L12.5919 13.9419L17.5422 8.99162C17.9978 8.53601 17.9978 7.79732 17.5422 7.34171C17.0866 6.8861 16.3479 6.8861 15.8923 7.34171L10.9419 12.292L5.99162 7.34171Z" fill="#0A0B09"/>
</svg>
