<svg width="21" height="17" viewBox="0 0 21 17" fill="none" xmlns="http://www.w3.org/2000/svg">
<path opacity="0.3" d="M1.89204 2.39844H7.89204C8.91204 2.39844 9.69204 3.17844 9.69204 4.19844C9.69204 5.21844 8.91204 5.99844 7.89204 5.99844H1.89204C0.872041 5.99844 0.092041 5.21844 0.092041 4.19844C0.092041 3.17844 0.872041 2.39844 1.89204 2.39844ZM12.692 11.9984H18.692C19.712 11.9984 20.492 12.7784 20.492 13.7984C20.492 14.8184 19.712 15.5984 18.692 15.5984H12.692C11.672 15.5984 10.892 14.8184 10.892 13.7984C10.892 12.7784 11.672 11.9984 12.692 11.9984Z" fill="#0F50A4"/>
<path d="M16.892 7.2C14.912 7.2 13.292 5.58 13.292 3.6C13.292 1.62 14.912 0 16.892 0C18.872 0 20.492 1.62 20.492 3.6C20.492 5.58 18.872 7.2 16.892 7.2ZM3.69204 16.8C1.71204 16.8 0.092041 15.18 0.092041 13.2C0.092041 11.22 1.71204 9.6 3.69204 9.6C5.67204 9.6 7.29204 11.22 7.29204 13.2C7.29204 15.18 5.67204 16.8 3.69204 16.8Z" fill="#0F50A4"/>
</svg>
