<svg width="12" height="20" viewBox="0 0 12 20" fill="none" xmlns="http://www.w3.org/2000/svg">
<path d="M9.14757 19.4107C9.393 19.6561 9.70535 19.79 10.0735 19.79C10.8098 19.79 11.401 19.2099 11.401 18.4736C11.401 18.1055 11.2448 17.7708 10.9882 17.5143L3.17934 9.88385L10.9882 2.27574C11.2448 2.01916 11.401 1.67334 11.401 1.31636C11.401 0.58009 10.8098 0 10.0735 0C9.70535 0 9.393 0.133867 9.14757 0.37929L0.468534 8.85753C0.156178 9.14758 0.0111556 9.50455 0 9.895C0 10.2854 0.156178 10.6201 0.468534 10.9213L9.14757 19.4107Z" fill="white"/>
</svg>
