<svg width="410" height="349" viewBox="0 0 410 349" fill="none" xmlns="http://www.w3.org/2000/svg">
<path fill-rule="evenodd" clip-rule="evenodd" d="M167.926 261.181V275.325L172.603 275.332C176.393 275.338 177.671 275.242 179.339 274.828C182.605 274.017 184.378 272.763 185.597 270.404C186.373 268.901 186.439 265.564 185.722 264.072C184.763 262.075 182.565 260.686 179.771 260.309C178.451 260.132 178.421 260.111 179.187 259.91C180.703 259.512 182.82 258.191 183.809 257.026C184.573 256.127 184.855 255.512 185.053 254.32C185.548 251.33 184.585 249.175 182.219 247.979C180.616 247.169 179.661 247.065 173.676 247.051L167.926 247.037V261.181ZM179.331 249.386C179.998 249.795 180.718 250.431 180.932 250.801C181.519 251.816 181.699 253.683 181.361 255.256C180.989 256.991 179.574 258.49 177.908 258.915C177.305 259.069 176.471 259.306 176.054 259.443C175.637 259.579 174.413 259.691 173.334 259.691H171.371L171.545 254.315C171.64 251.358 171.792 248.82 171.882 248.675C171.985 248.51 173.185 248.454 175.082 248.527C177.854 248.633 178.224 248.708 179.331 249.386ZM234.993 251.997C233.93 252.334 232.989 252.707 232.902 252.826C232.816 252.945 232.25 253.363 231.645 253.754C227.834 256.22 226.087 262.54 227.783 267.726C228.937 271.256 231.184 273.613 234.586 274.866C236.708 275.647 242.673 275.728 244.927 275.006C247.241 274.266 249.078 272.96 250.871 270.783C251.065 270.547 251.531 269.628 251.906 268.741C252.53 267.265 252.59 266.814 252.599 263.474L252.609 259.822L251.648 257.865C250.146 254.807 248.138 253.077 244.817 251.977C242.17 251.101 237.793 251.11 234.993 251.997ZM258.172 255.229C258.292 258.95 257.817 273.962 257.551 274.867C257.445 275.227 257.623 275.302 258.578 275.302H259.733L259.595 266.192C259.508 260.387 259.55 257.082 259.711 257.082C259.851 257.082 261.074 258.272 262.429 259.726C263.784 261.181 265.422 262.923 266.069 263.598C267.128 264.703 270.128 267.965 273.025 271.159C273.616 271.811 274.536 272.814 275.069 273.388C275.603 273.962 276.221 274.696 276.442 275.019C276.664 275.342 277.008 275.606 277.206 275.606C277.505 275.606 277.563 274.213 277.547 267.424C277.537 262.925 277.613 257.583 277.716 255.553L277.904 251.864L276.887 251.864H275.87L275.954 260.734C276.035 269.262 275.949 270.375 275.295 269.244C275.104 268.913 270.414 263.875 267.245 260.596C265.371 258.657 261.388 254.311 260.037 252.731C258.147 250.521 258.026 250.683 258.172 255.229ZM192.494 263.605V275.345H198.643H204.792L204.698 274.362L204.604 273.378L202.6 273.56C201.498 273.661 199.45 273.751 198.048 273.761L195.5 273.78V268.652V263.524L199.626 263.701L203.752 263.877L203.795 262.794L203.839 261.711L202.627 261.877C201.96 261.968 200.084 262.118 198.457 262.211L195.5 262.38V257.932C195.5 254.606 195.582 253.458 195.827 253.377C196.006 253.317 197.97 253.356 200.19 253.464C202.41 253.571 204.322 253.6 204.437 253.528C204.553 253.457 204.648 253.053 204.648 252.631V251.864H198.571L192.494 251.864V263.605ZM207.523 251.987C207.523 252.103 209.269 255.056 210.537 257.082C211.928 259.307 212.75 260.762 212.75 260.999C212.75 261.141 212.844 261.256 212.959 261.256C213.074 261.256 213.432 261.755 213.753 262.365C214.074 262.975 214.635 263.944 214.998 264.518C215.656 265.558 215.658 265.576 215.54 270.453L215.421 275.345H217.034H218.648L218.552 270.323C218.447 264.849 218.465 264.753 220.074 262.3C220.498 261.654 220.924 260.95 221.022 260.735C221.119 260.519 221.572 259.756 222.027 259.039C222.483 258.321 223.254 257.089 223.741 256.299C224.227 255.51 224.701 254.806 224.793 254.734C224.886 254.662 225.155 254.251 225.391 253.821C225.628 253.39 226.011 252.774 226.244 252.451L226.666 251.864H225.335H224.004L223.3 253.364C222.913 254.189 221.78 256.323 220.783 258.106C219.786 259.889 218.835 261.592 218.67 261.889C218.505 262.187 218.301 262.489 218.217 262.561C218.132 262.633 217.953 262.894 217.817 263.142C217.62 263.503 216.992 262.541 214.663 258.315C213.064 255.413 211.622 252.774 211.46 252.451C211.195 251.927 210.969 251.864 209.343 251.864C208.342 251.864 207.523 251.92 207.523 251.987ZM284.234 263.598V275.333L289.723 275.263C292.981 275.221 295.849 275.055 296.78 274.853C301.505 273.829 304.644 270.608 305.66 265.74C306.174 263.277 306.156 262.403 305.536 259.601C304.793 256.245 303.654 254.55 301.223 253.179C299.219 252.048 297.742 251.864 290.69 251.864H284.234V263.598ZM244.127 253.357C247.227 254.76 248.951 257.5 249.314 261.602C249.853 267.688 248.141 271.72 244.189 273.675C242.81 274.356 242.434 274.422 239.932 274.415C236.78 274.408 235.644 274.019 233.646 272.263C231.292 270.194 230.384 267.314 230.582 262.535C230.694 259.825 230.796 259.301 231.513 257.771C232.405 255.868 234.19 253.948 235.539 253.441C236.015 253.262 236.639 253.016 236.927 252.895C237.911 252.478 238.497 252.413 240.463 252.501C241.95 252.568 242.846 252.777 244.127 253.357ZM296.11 253.426C299.89 254.142 301.869 256.466 302.461 260.885C302.761 263.117 302.45 267.185 301.928 267.873C301.804 268.037 301.542 268.581 301.346 269.084C300.539 271.152 298.855 272.621 296.253 273.528C294.973 273.974 294.072 274.073 291.296 274.069C288.38 274.065 287.857 274.001 287.572 273.612C287.318 273.264 287.241 270.925 287.244 263.62C287.246 258.374 287.334 253.947 287.44 253.782C287.546 253.617 287.926 253.428 288.285 253.361C289.544 253.127 294.761 253.171 296.11 253.426ZM179.571 262.143C181.765 263.256 182.301 264.205 182.301 266.977C182.301 268.839 182.193 269.425 181.657 270.471C180.372 272.983 177.587 274.221 173.913 273.916L171.794 273.739L171.624 270.588C171.53 268.854 171.454 266.032 171.454 264.316V261.195L174.786 261.301C177.812 261.397 178.252 261.474 179.571 262.143ZM167.926 297.264C167.926 308.892 167.986 311.332 168.274 311.222C168.465 311.149 169.288 311.089 170.103 311.089H171.585L171.589 297.131L171.594 283.172H169.76H167.926V297.264ZM179.426 291.978C179.528 296.319 179.236 305.363 178.865 309.328L178.701 311.089H179.856H181.011L180.912 301.892L180.812 292.695L182.21 294.152C182.979 294.953 184.843 296.934 186.352 298.556C187.861 300.177 189.567 302.006 190.142 302.62C191.868 304.461 194.792 307.7 196.669 309.85C197.64 310.962 198.54 311.872 198.669 311.872C198.804 311.872 198.875 308.463 198.835 303.849C198.798 299.437 198.866 294.006 198.988 291.782L199.208 287.738H198.127H197.045L197.077 295.957C197.095 300.477 197.1 304.508 197.089 304.915C197.069 305.635 197.022 305.609 195.435 303.987C194.536 303.069 192.507 300.918 190.926 299.208C189.345 297.498 187.757 295.792 187.397 295.418C186.532 294.516 182.242 289.857 180.987 288.456C179.352 286.63 179.303 286.74 179.426 291.978ZM249.432 287.632C248.17 287.997 246.556 288.99 245.927 289.787C244.787 291.235 244.335 293.948 244.939 295.722C245.614 297.703 247.798 299.511 250.606 300.413C252.164 300.914 254.168 302.22 254.807 303.151C255.419 304.042 255.604 305.973 255.2 307.249C254.81 308.48 253.741 309.502 252.269 310.052C251.004 310.525 250.638 310.561 249.643 310.311C247.81 309.85 246.623 309.124 245.827 307.978C244.951 306.716 244.637 306.639 244.637 307.685C244.637 308.109 244.5 308.756 244.332 309.124C244.071 309.694 244.1 309.851 244.528 310.184C245.301 310.788 246.446 311.228 248.197 311.594C249.578 311.883 250.061 311.869 251.726 311.493C255.961 310.536 258.033 308.136 258.068 304.148C258.083 302.542 257.987 302.145 257.362 301.202C256.573 300.011 254.515 298.569 252.87 298.054C251.526 297.633 249.325 296.419 248.466 295.625C247.538 294.766 247.1 293.002 247.48 291.652C247.641 291.078 247.863 290.491 247.972 290.347C249.969 287.719 254.285 288.056 255.493 290.934C255.689 291.4 255.946 291.782 256.065 291.782C256.183 291.782 256.435 291.116 256.625 290.301C256.96 288.862 256.952 288.807 256.357 288.347C256.021 288.087 255.333 287.756 254.83 287.612C253.718 287.293 250.564 287.305 249.432 287.632ZM283.622 289.499C283.454 290.683 283.087 293.471 282.805 295.696C282.118 301.129 281.311 306.755 280.989 308.349C280.375 311.395 280.337 311.232 281.624 311.129L282.765 311.039L282.901 309.694C282.976 308.955 283.148 307.058 283.283 305.48C283.761 299.916 284.44 294.258 284.659 294.016C284.788 293.874 285.006 294.129 285.18 294.629C285.345 295.1 285.895 296.267 286.403 297.221C286.911 298.176 288.695 301.64 290.367 304.919C292.039 308.199 293.519 310.887 293.656 310.892C293.793 310.897 294.077 310.504 294.288 310.017C294.685 309.103 298.606 301.325 299.602 299.479C302.464 294.171 302.914 293.471 302.918 294.313C302.92 294.772 303.035 295.712 303.174 296.4C303.312 297.089 303.605 299.942 303.825 302.74C304.045 305.538 304.294 308.562 304.379 309.458L304.532 311.089H306.079H307.627L307.605 310.241C307.592 309.775 307.487 308.747 307.37 307.958C307.025 305.619 306.587 302.067 306.163 298.174C305.945 296.165 305.603 293.054 305.404 291.26C305.204 289.467 305.034 287.852 305.027 287.673C304.995 286.915 304.257 287.438 303.741 288.586C303.435 289.268 302.853 290.412 302.448 291.13C300.854 293.955 299.917 295.677 298.54 298.305C297.751 299.811 296.61 301.925 296.006 303.001C295.401 304.077 294.828 305.173 294.732 305.436C294.433 306.258 294.015 305.802 292.608 303.121C291.858 301.692 290.249 298.644 289.032 296.348C287.815 294.052 286.297 291.091 285.658 289.768C285.019 288.445 284.368 287.359 284.211 287.354C284.052 287.35 283.792 288.296 283.622 289.499ZM330.265 298.109C330.168 304.028 330.022 309.358 329.941 309.952L329.794 311.033L330.979 311.127L332.164 311.221L332.008 302.579C331.922 297.826 331.934 293.724 332.034 293.463C332.188 293.061 332.421 293.21 333.578 294.449C334.327 295.252 336.302 297.357 337.967 299.129C339.632 300.9 341.573 302.984 342.279 303.761C342.986 304.538 343.8 305.429 344.087 305.74C346.216 308.047 347.121 309.063 348.229 310.39C348.925 311.225 349.536 311.868 349.587 311.818C349.637 311.768 349.737 307.033 349.81 301.298C349.883 295.562 350.021 290.16 350.117 289.294L350.292 287.718L349.241 287.819L348.189 287.919L348.334 296.764C348.414 301.629 348.385 305.61 348.27 305.61C348.054 305.61 347.886 305.439 343.042 300.274C341.461 298.588 339.638 296.651 338.991 295.969C338.344 295.287 336.756 293.571 335.462 292.156C331.398 287.711 331.039 287.347 330.737 287.347C330.525 287.347 330.392 290.384 330.265 298.109ZM203.08 287.926C203.08 288.03 203.374 288.756 203.733 289.54C204.092 290.324 204.386 291.054 204.386 291.161C204.386 291.269 204.614 291.834 204.893 292.417C205.171 293.001 205.629 294.065 205.911 294.783C206.863 297.211 208.857 302.083 209.236 302.91C209.444 303.362 209.614 303.799 209.614 303.88C209.614 303.962 209.894 304.649 210.237 305.406C210.579 306.164 210.946 307.078 211.052 307.436C211.158 307.795 211.448 308.558 211.697 309.132C211.946 309.706 212.223 310.381 212.311 310.632C212.433 310.977 212.765 311.089 213.663 311.089C214.725 311.089 214.882 311.011 215.114 310.371C215.257 309.977 215.486 309.419 215.622 309.132C215.758 308.845 216.35 307.378 216.937 305.871C217.523 304.364 218.174 302.761 218.382 302.309C218.591 301.857 218.762 301.409 218.762 301.314C218.762 301.22 219.049 300.533 219.401 299.788C219.753 299.044 220.706 296.85 221.518 294.913C222.331 292.976 223.337 290.662 223.754 289.771C224.171 288.88 224.512 288.058 224.511 287.945C224.511 287.831 223.968 287.742 223.303 287.748L222.095 287.757L221.613 289.313C221.348 290.169 221.019 291.104 220.882 291.391C220.744 291.678 220.432 292.5 220.188 293.217C219.943 293.935 219.581 294.892 219.383 295.344C219.185 295.796 219.023 296.239 219.023 296.328C219.023 296.503 217.325 300.973 216.934 301.827C216.803 302.114 216.171 303.639 215.53 305.216C214.37 308.07 214.363 308.08 214.039 307.303C213.86 306.874 213.438 305.893 213.101 305.122C212.764 304.351 212.489 303.621 212.489 303.499C212.489 303.377 212.209 302.657 211.868 301.9C211.526 301.142 211.099 300.053 210.919 299.479C210.739 298.905 210.488 298.305 210.363 298.146C210.237 297.987 209.912 297.224 209.64 296.45C208.792 294.033 208.018 291.934 207.775 291.391C207.647 291.104 207.324 290.176 207.057 289.329L206.572 287.789L204.826 287.764C203.865 287.75 203.079 287.823 203.08 287.926ZM228.563 299.479V311.219L234.574 311.158L240.586 311.097L240.667 310.316L240.749 309.535L236.159 309.701L231.569 309.867V304.704V299.54L235.691 299.659L239.813 299.777L239.838 298.846L239.862 297.913L235.715 298.002L231.569 298.09V293.593V289.096L233.986 289.263C235.316 289.354 237.374 289.506 238.56 289.599L240.716 289.77V288.754V287.738H234.64H228.563V299.479ZM260.58 288.756V289.774L264.092 289.598L267.604 289.423L267.791 290.666C267.893 291.35 267.912 296.255 267.832 301.565L267.686 311.219H269.295H270.904L270.826 300.308L270.747 289.396L274.384 289.58L278.021 289.765V288.751V287.738H269.301H260.58V288.756ZM312.723 299.479V311.219L318.8 311.145L324.877 311.071V310.311V309.552L320.318 309.708L315.758 309.865L315.678 306.316C315.634 304.364 315.639 302.043 315.689 301.157L315.779 299.547L319.805 299.655L323.831 299.763V298.818C323.831 297.942 323.779 297.879 323.113 297.955C322.717 298 320.902 298.07 319.078 298.111L315.763 298.186L315.681 295.904C315.635 294.649 315.637 292.605 315.684 291.363L315.77 289.103L318.036 289.263C319.283 289.351 321.305 289.498 322.531 289.592L324.758 289.761V288.75V287.738H318.741H312.723V299.479ZM354.281 288.782V289.825L356.502 289.652C357.724 289.557 359.341 289.469 360.096 289.457L361.468 289.434V300.238V311.043L362.971 311.131L364.474 311.219L364.381 300.327L364.288 289.434L365.557 289.46C366.255 289.474 367.944 289.563 369.309 289.656L371.792 289.825V288.782V287.738H363.037H354.281L354.281 288.782ZM180.471 319.082C178.175 319.444 175.375 320.539 173.662 321.747C170.92 323.68 169.746 325.263 168.614 328.556C168.025 330.272 167.938 330.947 167.945 333.787C167.954 337.496 168.391 339.205 170.016 341.875C172.001 345.136 174.747 346.962 179.048 347.879C185.513 349.258 192.004 347.555 195.335 343.605C197.232 341.356 197.836 339.935 198.502 336.157C199.418 330.957 197.419 325.138 193.751 322.327C190.993 320.214 187.965 319.198 184 319.056C182.49 319.003 180.902 319.014 180.471 319.082ZM187.123 321.112C188.926 321.721 190.415 322.635 191.397 323.736C192.549 325.028 193.671 327.056 194.085 328.595C194.634 330.64 194.724 336.124 194.242 338.223C193.554 341.22 191.604 344.069 189.331 345.399C188.001 346.177 184.756 347.095 183.351 347.09C181.825 347.084 178.409 346.165 177.128 345.416C173.772 343.452 171.918 339.324 171.905 333.787C171.898 330.262 172.366 328.175 173.704 325.772C176.181 321.323 181.885 319.343 187.123 321.112ZM249.282 324.155C247.358 324.608 244.962 325.901 243.625 327.208C242.888 327.928 242.285 328.638 242.285 328.786C242.285 328.933 242.111 329.228 241.898 329.44C241.685 329.653 241.214 330.733 240.852 331.84C238.936 337.699 241.257 344.338 246.037 346.672C247.614 347.443 251.521 348.387 253.131 348.387C254.769 348.387 258.722 347.424 260.176 346.671C261.862 345.797 264.118 343.397 264.678 341.879C264.918 341.232 265.22 340.561 265.35 340.39C265.715 339.908 265.979 336.36 265.797 334.379C265.52 331.362 264.65 329.509 262.488 327.333C261.453 326.291 260.481 325.439 260.329 325.439C260.177 325.439 259.554 325.208 258.944 324.926C258.335 324.644 257.307 324.295 256.66 324.15C255.244 323.832 250.64 323.835 249.282 324.155ZM337.573 329.678C337.624 335.371 337.407 341.58 337.019 345.593L336.823 347.615H337.992H339.16L339.048 338.419L338.936 329.222L339.943 330.281C340.498 330.864 342.539 333.03 344.48 335.095C346.42 337.16 348.361 339.217 348.792 339.667C349.223 340.116 350.399 341.41 351.406 342.542C352.412 343.674 353.663 345.073 354.185 345.651C354.707 346.229 355.469 347.084 355.877 347.55C356.285 348.016 356.711 348.398 356.823 348.398C356.935 348.398 356.997 344.788 356.961 340.375C356.924 335.963 356.994 330.529 357.115 328.299L357.336 324.246L356.247 324.35L355.157 324.453L355.346 333.295C355.45 338.158 355.446 342.136 355.338 342.136C355.114 342.136 353.504 340.493 349.184 335.858C347.531 334.084 345.346 331.748 344.328 330.666C343.31 329.585 341.946 328.113 341.296 327.395C340.646 326.678 339.66 325.592 339.106 324.982C338.551 324.372 337.968 323.873 337.81 323.873C337.607 323.873 337.537 325.595 337.573 329.678ZM203.733 335.94V347.615H204.953C205.624 347.615 206.336 347.678 206.536 347.754C206.84 347.871 206.881 347.031 206.786 342.536L206.673 337.179H208.915C212.726 337.179 215.204 336.401 216.853 334.685C218.267 333.213 218.621 332.302 218.618 330.135C218.613 327.445 217.871 326.142 215.721 325.053L214.188 324.276L208.96 324.27L203.733 324.265V335.94ZM222.813 336.005V347.746L224.381 347.75L225.949 347.754L225.865 342.467L225.78 337.179L228.086 337.173C231.666 337.163 233.976 336.466 235.838 334.834C238.07 332.877 238.428 328.241 236.502 326.229C234.914 324.57 233.876 324.333 228.04 324.297L222.813 324.265V336.005ZM270.643 336.005V347.746H272.221H273.8L273.692 342.202L273.585 336.657H274.36C275.129 336.657 276.203 337.71 278.353 340.571C278.713 341.049 279.216 341.685 279.471 341.984C279.726 342.283 280.403 343.173 280.975 343.963C281.546 344.752 282.105 345.515 282.216 345.659C282.328 345.802 282.682 346.292 283.003 346.748C283.565 347.543 283.67 347.579 285.658 347.661C287.477 347.735 287.687 347.698 287.394 347.354C286.2 345.953 284.132 343.413 283.581 342.67C283.221 342.185 282.722 341.544 282.472 341.245C279.423 337.609 278.539 336.343 278.893 336.12C279.099 335.989 279.515 335.881 279.817 335.879C281.059 335.87 284.626 333.426 284.626 332.584C284.626 332.409 284.773 332.217 284.953 332.157C285.182 332.081 285.28 331.351 285.28 329.722C285.28 327.531 285.234 327.338 284.5 326.423C284.003 325.802 283.2 325.239 282.284 324.868C280.972 324.336 280.405 324.285 275.745 324.275L270.643 324.265V336.005ZM288.547 325.391C288.547 326.338 288.619 326.497 289.004 326.39C289.256 326.32 290.902 326.185 292.663 326.089L295.865 325.915V336.83V347.746H297.368H298.871V336.918V326.091L302.007 326.163C303.732 326.203 305.382 326.286 305.673 326.349C306.14 326.449 306.202 326.332 306.196 325.364L306.189 324.265H297.368H288.547L288.547 325.391ZM310.302 332.483C310.294 337.003 310.396 341.23 310.529 341.875C311.335 345.772 313.87 347.693 319.009 348.302C320.698 348.501 324.103 347.812 325.515 346.985C326.853 346.202 328.155 344.782 328.7 343.511C328.933 342.97 329.244 342.294 329.393 342.009C329.542 341.723 329.755 339.199 329.867 336.399C329.979 333.6 330.136 329.753 330.216 327.852L330.362 324.395H329.318H328.275L328.27 331.766C328.266 338.112 328.198 339.397 327.777 341.015C326.714 345.099 324.834 346.617 320.826 346.629C317.025 346.64 315.251 345.688 313.937 342.933L313.246 341.484V332.874V324.265H311.782H310.318L310.302 332.483ZM363.69 336.005V347.746H365.258H366.826V336.005V324.265H365.258H363.69V336.005ZM370.878 325.391C370.878 326.339 370.95 326.497 371.335 326.388C371.587 326.317 373.242 326.178 375.015 326.079L378.236 325.9L378.151 336.823L378.065 347.746H379.633H381.202L381.123 336.853L381.045 325.96L382.299 325.985C382.989 325.999 384.642 326.086 385.972 326.181L388.389 326.352V325.308V324.265H379.633H370.878V325.391ZM390.297 324.852C390.444 325.174 390.663 325.439 390.784 325.439C390.904 325.439 391.003 325.551 391.003 325.688C391.003 325.825 392.125 327.792 393.497 330.058C394.869 332.325 396.096 334.355 396.225 334.57C396.353 334.785 396.893 335.694 397.425 336.589L398.392 338.217L398.269 342.895L398.146 347.573L399.736 347.67C400.611 347.723 401.356 347.753 401.391 347.735C401.427 347.718 401.336 345.612 401.189 343.054L400.923 338.404L401.703 336.813C402.131 335.938 402.78 334.753 403.145 334.179C403.509 333.605 403.886 332.959 403.983 332.744C404.079 332.529 405.001 331.061 406.029 329.483C407.059 327.904 408.123 326.231 408.395 325.765C408.666 325.299 408.968 324.917 409.066 324.917C409.163 324.917 409.299 324.77 409.367 324.591C409.457 324.356 409.115 324.265 408.145 324.265H406.798L405.279 327.265C404.444 328.915 403.485 330.735 403.149 331.309C402.813 331.883 402.279 332.822 401.964 333.396C401.082 334.999 400.394 335.895 400.158 335.749C399.966 335.631 395.402 327.479 394.238 325.178L393.777 324.265H391.903C390.055 324.265 390.033 324.273 390.297 324.852ZM254.672 325.187C259.136 325.831 261.818 328.844 262.388 333.856C262.802 337.493 262.276 340.828 260.954 342.939C259.229 345.693 256.593 347.083 253.078 347.09C249.152 347.098 246.262 345.273 244.578 341.723C243.729 339.933 243.722 339.887 243.725 336.005C243.727 332.149 243.739 332.066 244.559 330.345C245.931 327.464 248.344 325.605 251.263 325.179C252.003 325.07 252.668 324.97 252.739 324.955C252.811 324.94 253.681 325.044 254.672 325.187ZM212.288 325.605C212.833 325.695 213.67 326.126 214.186 326.581C215.353 327.61 215.741 329.332 215.33 331.659C215.043 333.285 214.712 333.784 213.112 335.003C212.23 335.674 211.928 335.742 209.445 335.834L206.739 335.934V330.686V325.439L209.026 325.441C210.284 325.443 211.751 325.517 212.288 325.605ZM233.064 326.391C235.281 328.172 235.298 332.3 233.099 334.366C231.832 335.556 230.759 335.871 227.975 335.873L225.819 335.875V330.625V325.374L228.948 325.486C231.969 325.593 232.112 325.625 233.064 326.391ZM280.577 326.335C281.939 327.372 282.533 328.47 282.534 329.95C282.535 331.327 281.893 332.786 280.87 333.73C279.873 334.648 277.287 335.39 275.396 335.3L273.78 335.222L273.708 330.666C273.668 328.16 273.7 325.943 273.778 325.74C273.892 325.444 274.476 325.395 276.769 325.489C279.395 325.597 279.695 325.664 280.577 326.335Z" fill="#0F50A4"/>
<path fill-rule="evenodd" clip-rule="evenodd" d="M60.7909 84.5044C60.7311 84.5618 59.0941 84.8013 57.1535 85.0361C55.2128 85.2709 53.1545 85.5827 52.5795 85.729C52.0045 85.8754 50.5343 86.225 49.3124 86.506C48.0905 86.787 46.8556 87.1251 46.5681 87.2572C46.2806 87.3894 45.7513 87.5775 45.3919 87.6754C43.7074 88.1338 39.715 89.7963 36.5911 91.34C33.318 92.9576 32.0601 93.6767 29.5063 95.39C28.891 95.8025 28.2736 96.1401 28.1341 96.1401C27.9945 96.1401 27.8803 96.2377 27.8803 96.3572C27.8803 96.4764 27.3217 96.9403 26.6388 97.388C25.9558 97.8357 25.0444 98.5023 24.6132 98.8692C21.0379 101.91 18.0492 104.791 16.0706 107.102C15.3971 107.889 14.6033 108.815 14.3064 109.16C14.0092 109.505 13.7664 109.864 13.7664 109.959C13.7664 110.053 13.5607 110.358 13.309 110.636C11.8799 112.217 8.86996 116.957 7.35507 120.013C6.928 120.874 6.51791 121.637 6.44316 121.709C5.75707 122.369 2.5331 131.409 1.71423 134.969C-0.61142 145.08 -0.569339 156.084 1.83211 165.932C2.6149 169.141 3.56445 172.366 3.82948 172.715C3.93847 172.859 4.17579 173.446 4.35692 174.02C4.53779 174.594 4.83522 175.357 5.01766 175.715C5.20009 176.074 5.89977 177.542 6.57253 178.977C7.24503 180.412 8.3156 182.441 8.95124 183.486C9.58715 184.532 10.1073 185.491 10.1073 185.617C10.1073 185.744 10.2006 185.886 10.3145 185.934C10.4285 185.982 10.7962 186.47 11.1321 187.019C11.6825 187.919 13.865 190.785 15.8359 193.196C17.3059 194.994 21.7128 199.272 24.0565 201.176C27.0829 203.634 27.1754 203.704 29.0564 204.942C29.919 205.509 30.7423 206.067 30.886 206.182C32.3693 207.361 40.9008 211.472 43.4317 212.227C44.0067 212.399 44.7124 212.646 44.9999 212.776C47.301 213.817 54.9679 215.45 59.6365 215.894C61.1676 216.039 80.8177 216.146 107.075 216.153L151.899 216.164L147.74 220.138C137.734 229.699 123.98 243.72 116.729 251.749C116.091 252.456 115.334 253.274 115.046 253.569C114.759 253.863 114.112 254.588 113.609 255.18C112.688 256.264 109.284 260.167 108.37 261.187C107.672 261.966 102.614 268.106 101.923 269.013C100.893 270.366 97.1182 275.238 96.7536 275.686C96.5586 275.926 96.2732 276.357 96.1192 276.644C95.9653 276.931 95.6906 277.322 95.5087 277.513C94.1579 278.927 85.6426 292.762 85.6426 293.541C85.6426 293.628 85.3451 294.289 84.9818 295.012C84.6183 295.734 84.3666 296.37 84.4222 296.426C84.4782 296.482 85.3341 295.616 86.3247 294.502C90.6091 289.684 102.801 277.795 108.108 273.262C109.179 272.346 110.339 271.337 110.685 271.019C111.031 270.701 112.448 269.527 113.834 268.411C115.219 267.295 116.488 266.264 116.653 266.12C116.817 265.975 117.333 265.564 117.799 265.205C118.265 264.846 119.012 264.252 119.46 263.885C120.41 263.104 123.682 260.584 124.604 259.922C126.85 258.311 128.149 257.366 128.376 257.178C128.52 257.06 129.402 256.44 130.336 255.8C131.271 255.161 132.094 254.565 132.166 254.475C132.238 254.385 133.473 253.54 134.91 252.597C136.348 251.654 137.666 250.759 137.84 250.608C138.013 250.457 138.222 250.334 138.303 250.334C138.385 250.334 139.018 249.952 139.709 249.486C140.401 249.02 141.821 248.11 142.865 247.464C143.909 246.818 145.134 246.051 145.587 245.758C147.059 244.809 157.042 239.324 160.263 237.696C163.088 236.267 165.198 235.269 169.15 233.491C172.892 231.807 173.493 231.549 173.67 231.549C173.776 231.549 174.272 231.33 174.773 231.063C175.274 230.797 175.978 230.49 176.337 230.382C176.697 230.274 177.343 230.026 177.775 229.831C178.851 229.343 184.975 227.181 187.053 226.556C187.988 226.275 188.987 225.942 189.275 225.815C190.144 225.432 199.874 222.819 202.599 222.237C206.402 221.424 211.381 220.563 215.804 219.954C220.305 219.334 224.579 218.483 225.605 218.003C225.893 217.868 226.758 217.56 227.529 217.318C230.38 216.421 233.781 214.138 236.22 211.484C238.003 209.544 238.13 209.38 238.682 208.304C238.933 207.815 239.217 207.356 239.313 207.285C239.582 207.084 241.043 203.945 241.792 201.959C242.578 199.874 243.058 198.209 243.905 194.631C244.245 193.196 244.836 190.73 245.219 189.152C245.602 187.574 246.194 185.108 246.534 183.673C246.874 182.238 247.453 179.831 247.821 178.325C248.19 176.818 248.782 174.382 249.136 172.911C249.491 171.44 250.072 169.033 250.427 167.562C250.782 166.091 251.374 163.655 251.742 162.149C252.523 158.955 253.475 155.001 254.351 151.321C255.433 146.773 255.484 146.758 255.509 150.985C255.532 154.973 255.893 159.529 256.309 161.105C256.441 161.607 256.748 163.133 256.99 164.497C257.232 165.86 257.532 167.087 257.657 167.223C257.782 167.36 257.884 167.691 257.884 167.96C257.884 168.828 261.096 177.674 261.553 178.064C261.637 178.135 262.259 179.309 262.935 180.673C263.611 182.036 264.309 183.383 264.487 183.666C265.816 185.783 267.922 188.904 268.228 189.21C268.433 189.414 268.6 189.66 268.6 189.758C268.601 189.938 268.97 190.401 271.139 192.935C272.63 194.677 277.769 199.763 279.312 201.023C279.927 201.525 280.738 202.201 281.115 202.525C281.491 202.849 282.005 203.179 282.256 203.26C282.508 203.34 282.714 203.497 282.714 203.609C282.714 203.72 283.126 204.032 283.629 204.303C284.132 204.573 284.543 204.858 284.543 204.937C284.543 205.015 284.984 205.31 285.524 205.592C286.063 205.875 286.563 206.179 286.634 206.267C286.706 206.356 287.177 206.638 287.68 206.893C288.183 207.149 288.653 207.434 288.725 207.528C289.07 207.977 296.94 211.607 298.657 212.109C299.017 212.214 299.664 212.455 300.095 212.644C301.871 213.423 306.628 214.574 312.64 215.681C313.736 215.883 328.612 216 362.006 216.07C407.745 216.167 409.798 216.152 409.67 215.707C409.597 215.451 406.72 210.194 403.276 204.023L397.016 192.805L375.215 192.651C361.641 192.556 353.019 192.397 352.368 192.23C348.172 191.152 346.887 190.758 344.989 189.967C342.689 189.01 339.899 187.523 338.351 186.43C337.829 186.062 337.133 185.584 336.806 185.369C335.365 184.423 332.007 181.211 330.259 179.107C327.985 176.369 326.741 174.24 324.242 168.802C323.842 167.932 322.929 164.746 322.484 162.67C321.873 159.817 321.875 141.032 322.487 138.145C322.979 135.828 323.963 132.397 324.244 132.02C324.353 131.873 324.655 131.181 324.914 130.482C325.441 129.058 327.467 125.342 328.301 124.269C328.6 123.883 329.254 123.002 329.755 122.312C330.955 120.654 335.091 116.564 336.564 115.578C337.206 115.148 337.791 114.727 337.862 114.641C338.54 113.838 344.455 110.826 346.749 110.115C347.54 109.87 348.422 109.569 348.709 109.446C349.46 109.125 351.433 108.739 354.663 108.28C356.994 107.95 360.883 107.881 377.148 107.881C399.295 107.881 397.013 108.108 398.165 105.787C398.484 105.145 399.091 104.032 399.515 103.315C399.939 102.597 400.78 101.071 401.385 99.9232C401.99 98.7752 402.705 97.5245 402.975 97.1435C403.245 96.7626 403.466 96.3306 403.466 96.1837C403.466 96.0368 403.613 95.7613 403.793 95.5716C403.972 95.3822 404.38 94.6986 404.699 94.0529C405.018 93.4072 405.631 92.2918 406.062 91.5743C406.493 90.8568 407.009 89.9176 407.209 89.4871C407.409 89.0566 408.119 87.7847 408.786 86.6607C409.454 85.5368 410 84.5683 410 84.5083C410 84.4485 389.152 84.4003 363.673 84.401C318.585 84.4026 317.237 84.417 313.294 84.9335C308.105 85.6137 300.841 87.3654 298.265 88.5577C297.978 88.6908 296.607 89.2726 295.22 89.8511C293.832 90.4292 292.303 91.1211 291.822 91.3883C291.341 91.6557 290.182 92.2754 289.248 92.7656C288.314 93.2556 287.432 93.75 287.288 93.8643C287.144 93.9785 286.262 94.5559 285.328 95.1476C284.393 95.7391 283.32 96.4686 282.943 96.7686C282.565 97.0687 281.925 97.549 281.518 97.836C276.69 101.247 270.018 108.352 266.453 113.882C264.394 117.075 264.073 117.629 262.555 120.6C261.803 122.071 261.109 123.274 261.013 123.274C260.849 123.274 256.688 126.4 255.065 127.744C254.654 128.083 253.922 128.655 253.438 129.014C252.954 129.373 251.481 130.547 250.165 131.623C248.85 132.699 247.383 133.873 246.906 134.232C246.429 134.591 244.956 135.765 243.634 136.841C242.311 137.917 240.83 139.111 240.343 139.493C239.856 139.875 239.163 140.44 238.804 140.748C237.321 142.019 235.716 143.335 230.832 147.28C225.374 151.69 225.068 151.94 224.245 152.666C222.892 153.86 222.476 154.208 220.378 155.897C218.2 157.651 217.556 158.188 216.321 159.279C215.915 159.637 215.403 160.077 215.184 160.255C213.768 161.404 210.884 163.805 210.446 164.198C210.158 164.456 208.747 165.643 207.309 166.835C205.872 168.027 204.637 169.087 204.565 169.19C204.493 169.293 203.729 169.946 202.866 170.641C202.004 171.337 201.168 172.029 201.01 172.18C200.539 172.628 198.1 174.721 194.894 177.43C193.241 178.827 191.83 180.048 191.758 180.144C191.686 180.239 190.686 181.129 189.536 182.12C187.398 183.964 187.033 184.282 184.309 186.67C183.446 187.425 181.987 188.704 181.066 189.511C180.144 190.318 179.015 191.331 178.555 191.761C178.096 192.192 176.851 193.307 175.79 194.24C174.728 195.172 173.554 196.229 173.18 196.588C172.806 196.946 171.584 198.056 170.466 199.053C169.347 200.051 168.113 201.166 167.724 201.532C167.335 201.898 166.43 202.725 165.712 203.371C163.097 205.723 158.131 210.337 155.957 212.433C154.223 214.104 153.671 214.503 153.468 214.229C153.324 214.036 150.56 209.109 147.325 203.28L141.445 192.683L120.666 192.664C104.795 192.65 99.3934 192.565 97.7962 192.302C95.4752 191.921 91.4065 190.897 91.0006 190.591C90.8568 190.483 90.2688 190.245 89.6938 190.063C89.1188 189.881 87.7063 189.243 86.5547 188.645C81.9246 186.241 77.5234 182.628 74.5344 178.779C74.3907 178.594 73.9116 177.975 73.4696 177.405C72.6939 176.404 70.2219 172.454 70.2219 172.216C70.2219 172.152 69.8803 171.357 69.4629 170.45C69.0454 169.544 68.5543 168.273 68.3716 167.628C68.1889 166.982 67.9563 166.336 67.8552 166.193C67.7538 166.049 67.4718 164.816 67.2287 163.453C66.9856 162.09 66.6777 160.482 66.5442 159.881C66.2117 158.382 66.236 142.777 66.5737 140.863C67.2517 137.023 67.6971 134.864 67.8615 134.623C67.9592 134.48 68.1897 133.834 68.3735 133.188C69.6314 128.766 73.646 122.331 77.3935 118.732C83.169 113.186 89.8221 109.798 97.5348 108.477C99.7993 108.09 102.919 108.011 120.897 107.89L141.646 107.75L142.936 105.272C143.646 103.908 144.555 102.258 144.958 101.605C145.36 100.951 145.772 100.159 145.872 99.8436C145.972 99.5287 146.151 99.271 146.269 99.271C146.388 99.271 146.685 98.7724 146.929 98.1629C147.173 97.5534 147.45 96.9959 147.545 96.9236C147.765 96.7564 148.18 96.0227 149.614 93.2702C150.628 91.3246 151.244 90.2327 152.487 88.1826C152.738 87.769 153.744 85.8115 154.331 84.5952C154.426 84.3987 60.9951 84.3079 60.7909 84.5044Z" fill="#0F50A4"/>
<path fill-rule="evenodd" clip-rule="evenodd" d="M226.389 0.131516C223.586 0.439642 221.509 0.845864 219.463 1.48612C214.826 2.93752 209.212 6.00052 206.394 8.61686C202.792 11.9616 202.475 12.293 200.381 14.8999C198.801 16.8671 196.085 21.8425 195.413 24.0005C195.234 24.5745 195.001 25.1615 194.896 25.305C194.791 25.4485 194.365 26.9161 193.95 28.5663C193.232 31.4211 193.195 31.845 193.195 37.3065C193.195 42.4301 193.26 43.2984 193.794 45.3945C195.698 52.8694 198.838 58.5365 203.911 63.6548C204.936 64.6883 207.636 66.9834 208.186 67.2882C208.422 67.4194 208.675 67.5981 208.747 67.6855C208.819 67.7727 209.172 68.0302 209.531 68.2577C210.132 68.6376 210.375 68.6308 212.537 68.1729C213.83 67.899 216.594 67.452 218.679 67.1799C220.763 66.9075 223.057 66.5626 223.775 66.4134C224.494 66.2644 226.317 65.9046 227.827 65.614C232.01 64.8085 238.214 63.2781 241.548 62.2287C246.076 60.804 254.059 57.9948 255.695 57.2507C256.308 56.9718 256.892 56.7438 256.993 56.7438C257.484 56.7438 263.805 53.7387 264.076 53.3766C264.523 52.7799 266.143 48.1066 266.753 45.6554C268.454 38.8179 267.853 30.4304 265.176 23.6803C264.372 21.6537 262.045 17.1223 261.423 16.3712C261.213 16.1189 260.7 15.476 260.283 14.9425C259.865 14.4089 259.442 14.053 259.343 14.1517C259.244 14.2505 259.229 14.1587 259.31 13.9479C259.505 13.4381 253.991 8.02461 252.424 7.18789C252.13 7.03057 251.578 6.61417 251.198 6.26273C250.818 5.91104 250.256 5.54525 249.949 5.4495C249.641 5.35375 249.331 5.18859 249.259 5.0824C248.971 4.65635 244.812 2.73402 242.725 2.06193C241.503 1.66849 240.268 1.24974 239.98 1.13155C237.982 0.309446 230.07 -0.272623 226.389 0.131516ZM344.062 11.7341C343.424 12.5327 341.188 14.9662 338.777 17.4876C338.346 17.9384 337.628 18.7078 337.181 19.1973C336.734 19.6864 335.528 20.8921 334.502 21.8765C333.475 22.8606 332.635 23.7704 332.635 23.8985C332.635 24.0263 332.522 24.1309 332.383 24.1309C332.245 24.1309 331.075 25.1584 329.784 26.4138C328.494 27.6696 326.646 29.4012 325.678 30.2621C324.71 31.1231 323.38 32.3095 322.722 32.8986C320.849 34.577 316.542 38.2823 315.628 39.0024C315.173 39.3611 314.49 39.9109 314.112 40.2237C312.434 41.6122 309.92 43.612 309.251 44.09C308.849 44.377 308.013 45.0227 307.392 45.525C305.287 47.2284 298.73 51.994 297.161 52.9607C296.245 53.5253 295.816 53.9785 295.967 54.2216C296.054 54.3617 295.998 54.3983 295.843 54.303C295.689 54.2078 294.488 54.8648 293.175 55.7628C291.862 56.6611 290.471 57.5724 290.083 57.7879C289.696 58.0034 289.008 58.4438 288.554 58.7663C288.101 59.0888 287.611 59.3528 287.465 59.3528C287.32 59.3528 287.162 59.4452 287.113 59.5581C287.066 59.6708 286.085 60.3116 284.935 60.9819C283.785 61.6522 282.727 62.2992 282.583 62.4203C282.439 62.5411 279.969 63.9353 277.094 65.5185C269.344 69.7866 266.663 71.101 256.185 75.7725C255.61 76.029 254.14 76.6212 252.918 77.0887C251.696 77.5563 250.343 78.0841 249.912 78.2615C248.26 78.9411 241.417 81.2694 238.543 82.1294C233.389 83.6716 231.219 84.2315 224.298 85.8063C222.335 86.2532 217.504 87.0333 212.708 87.6783C211.077 87.8977 209.254 88.181 208.657 88.3083C205.355 89.0107 202.894 89.6369 202.636 89.8404C202.475 89.9674 201.873 90.22 201.298 90.4018C200.108 90.7783 198.098 91.8467 196.291 93.0641C195.031 93.9131 191.497 97.3463 191.497 97.7215C191.497 97.8357 191.328 98.0974 191.122 98.303C190.609 98.8146 188.314 103.28 187.741 104.88C187.484 105.598 187.169 106.42 187.041 106.707C186.774 107.305 185.989 110.232 185.082 114.012C184.738 115.447 184.154 117.854 183.786 119.36C182.698 123.809 181.51 128.751 179.864 135.667C179.523 137.102 178.929 139.567 178.544 141.146C178.16 142.724 177.574 145.131 177.243 146.494C176.911 147.858 176.325 150.264 175.94 151.843C175.182 154.945 174.089 159.58 173.232 163.323C172.937 164.614 172.574 166.082 172.426 166.584C172.279 167.086 171.688 169.493 171.114 171.932C170.54 174.372 169.963 176.72 169.833 177.15C169.27 179.013 168.171 184.088 168.302 184.219C168.382 184.298 168.663 184.187 168.929 183.972C169.194 183.757 170.764 182.488 172.417 181.153C174.07 179.818 175.599 178.582 175.814 178.406C176.182 178.108 178.11 176.594 180.405 174.802C180.956 174.372 182.132 173.433 183.019 172.715C183.906 171.998 185.079 171.058 185.627 170.628C186.176 170.197 186.926 169.587 187.296 169.271C187.666 168.955 188.679 168.133 189.547 167.445C190.416 166.756 191.298 166.046 191.508 165.867C192.192 165.284 196.218 162.034 197.1 161.354C197.574 160.988 198.137 160.519 198.352 160.31C198.567 160.102 199.141 159.614 199.628 159.227C201.034 158.11 207.074 153.119 209.792 150.83C211.158 149.68 212.393 148.648 212.537 148.536C213.43 147.843 219.815 142.489 221.039 141.407C221.851 140.689 222.798 139.878 223.145 139.604C223.702 139.165 224.673 138.346 226.389 136.868C226.677 136.621 227.735 135.733 228.741 134.895C229.748 134.058 230.865 133.097 231.224 132.76C231.584 132.423 232.172 131.903 232.531 131.604C234.079 130.315 237.97 126.948 239.38 125.679C240.221 124.92 241.159 124.098 241.464 123.852C241.768 123.606 242.559 122.922 243.22 122.331C243.882 121.741 245.129 120.638 245.992 119.88C251.836 114.744 253.771 113.014 254.478 112.294C254.842 111.922 255.845 111.027 256.708 110.303C257.57 109.579 258.885 108.415 259.629 107.716C260.372 107.018 261.706 105.8 262.592 105.011C263.478 104.222 264.771 103.048 265.466 102.402C266.16 101.756 268.002 100.054 269.559 98.62C271.116 97.1856 273.448 94.9976 274.742 93.7576C276.036 92.5177 277.963 90.6974 279.025 89.7125C284.309 84.812 294.478 74.6957 304.426 64.4404C304.711 64.1472 306.01 62.7782 308.751 59.883C310.759 57.7637 315.931 52.0838 316.646 51.2145C317.163 50.5849 318.007 49.6084 320.779 46.4313C321.909 45.136 324.01 42.6117 325.447 40.8219C326.885 39.0319 328.123 37.5087 328.2 37.437C328.277 37.3652 328.801 36.6608 329.364 35.8716C329.927 35.0823 330.658 34.1564 330.989 33.8141C331.319 33.4715 331.59 33.0984 331.59 32.9847C331.59 32.8709 331.737 32.6199 331.916 32.4269C332.494 31.8062 333.794 30.0446 334.862 28.4358C335.434 27.5748 335.967 26.8117 336.047 26.74C336.255 26.5524 338.569 22.9193 339.991 20.5466C341.521 17.9961 344.722 11.8685 344.526 11.8685C344.445 11.8685 344.504 11.6337 344.658 11.3467C345.065 10.5869 344.885 10.7041 344.062 11.7341Z" fill="#ED1E26"/>
</svg>
