<svg width="24" height="25" viewBox="0 0 24 25" fill="none" xmlns="http://www.w3.org/2000/svg">
<path d="M19.1429 2.92969H17.1021C16.6939 2.92969 16.2858 3.23383 16.2858 3.74074C16.2858 4.24764 16.5919 4.55178 17.1021 4.55178H19.1429C19.8572 4.55178 20.3674 5.16007 20.3674 5.76836V7.79598C20.3674 8.2015 20.6735 8.60703 21.1837 8.60703C21.6939 8.60703 22 8.30288 22 7.79598V5.76836C22 4.24764 20.6735 2.92969 19.1429 2.92969Z" fill="#848F92"/>
<path d="M21.1837 17.123C20.7756 17.123 20.3674 17.4272 20.3674 17.9341V19.9617C20.3674 20.6714 19.7551 21.1783 19.1429 21.1783H17.1021C16.6939 21.1783 16.2858 21.4824 16.2858 21.9893C16.2858 22.4962 16.5919 22.8004 17.1021 22.8004H19.1429C20.6735 22.8004 22 21.5838 22 19.9617V17.9341C22 17.5286 21.5919 17.123 21.1837 17.123Z" fill="#848F92"/>
<path d="M2.81637 8.60703C3.22454 8.60703 3.6327 8.30288 3.6327 7.79598V5.76836C3.6327 5.05869 4.24494 4.55178 4.85719 4.55178H6.89801C7.30617 4.55178 7.71433 4.24764 7.71433 3.74074C7.71433 3.23383 7.30617 2.92969 6.89801 2.92969H4.85719C3.32658 2.92969 2.00005 4.24764 2.00005 5.76836V7.79598C2.00005 8.2015 2.40821 8.60703 2.81637 8.60703Z" fill="#848F92"/>
<path d="M6.89801 21.1783H4.85719C4.1429 21.1783 3.6327 20.57 3.6327 19.9617V17.9341C3.6327 17.5286 3.32658 17.123 2.81637 17.123C2.30617 17.123 2.00005 17.5286 2.00005 17.9341V19.9617C2.00005 21.4824 3.22454 22.8004 4.85719 22.8004H6.89801C7.30617 22.8004 7.71433 22.4962 7.71433 21.9893C7.71433 21.4824 7.30617 21.1783 6.89801 21.1783Z" fill="#848F92"/>
<path d="M8.25 9.13867H9.67941V10.5534H8.25V9.13867ZM13.7445 11.9247H14.905V13.0734H13.7445V11.9247ZM11.4508 14.813H12.5566V15.9073H11.4508V14.813ZM16.0656 11.9247H18V13.0734H16.0656V11.9247ZM11.4508 17.0017H12.5566V18.8256H11.4508V17.0017Z" fill="#848F92"/>
<path d="M11.6 6.90332C11.8121 6.90332 12.0156 6.98704 12.1656 7.13605C12.2399 7.20984 12.2988 7.29744 12.3391 7.39386C12.3793 7.49028 12.4 7.59363 12.4 7.698V12.4671C12.4 12.6779 12.3157 12.88 12.1656 13.0291C12.0156 13.1782 11.8122 13.2619 11.6 13.262H6.80002C6.58786 13.2619 6.38441 13.1781 6.23441 13.0291C6.08437 12.88 6.00005 12.6779 6 12.4671V7.69817C6 7.48736 6.08429 7.28519 6.23432 7.13613C6.38435 6.98706 6.58784 6.90332 6.80002 6.90332H11.6ZM11.5367 7.76101H6.86327V12.4041H11.5367V7.76101ZM9.60002 14.4541C9.81214 14.4543 10.0155 14.5382 10.1654 14.6873C10.3153 14.8364 10.3995 15.0386 10.3994 15.2493V18.0309C10.3993 18.2415 10.3151 18.4436 10.1652 18.5926C10.0153 18.7416 9.81205 18.8254 9.60002 18.8256H6.80002C6.58787 18.8256 6.38441 18.7418 6.23438 18.5928C6.08435 18.4438 6.00004 18.2417 6 18.0309V15.2493C6 15.0385 6.08429 14.8363 6.23432 14.6873C6.38435 14.5382 6.58784 14.4545 6.80002 14.4545L9.60002 14.4541ZM6.78027 15.2294V18.0499H9.61911V15.2294H6.78027ZM17.2 14.4541C17.3051 14.4542 17.4091 14.4748 17.5062 14.5147C17.6032 14.5547 17.6914 14.6133 17.7657 14.6871C17.84 14.761 17.8989 14.8486 17.939 14.9451C17.9792 15.0415 17.9999 15.1449 17.9998 15.2493V18.0309C17.9998 18.2417 17.9155 18.4439 17.7655 18.5929C17.6155 18.742 17.412 18.8257 17.1998 18.8257H14.4003C14.1881 18.8257 13.9846 18.742 13.8346 18.5929C13.6846 18.4439 13.6003 18.2417 13.6003 18.0309V15.2493C13.6002 15.1449 13.6209 15.0415 13.6611 14.945C13.7013 14.8486 13.7602 14.7609 13.8345 14.6871C13.9088 14.6132 13.997 14.5546 14.0941 14.5147C14.1912 14.4747 14.2952 14.4541 14.4003 14.4541H17.2ZM17.2 15.2493H14.4003V18.0304H17.1995L17.2 15.2493ZM17.2 6.90332C17.4122 6.90332 17.6156 6.98706 17.7657 7.13613C17.9157 7.28519 18 7.48736 18 7.69817V10.4801C17.9998 10.6908 17.9155 10.8928 17.7654 11.0417C17.6154 11.1906 17.412 11.2743 17.2 11.2743H14.4003C14.1882 11.2743 13.9847 11.1907 13.8346 11.0418C13.6845 10.8929 13.6001 10.6908 13.6 10.4801V7.69817C13.6 7.59376 13.6207 7.49038 13.6609 7.39392C13.7011 7.29746 13.7601 7.20982 13.8344 7.13601C13.9087 7.0622 13.997 7.00366 14.0941 6.96373C14.1912 6.9238 14.2952 6.90328 14.4003 6.90332H17.2ZM17.2011 7.69685H14.3987V10.4812H17.2011V7.69685Z" fill="#848F92"/>
</svg>
