<svg width="16" height="16" viewBox="0 0 16 16" fill="none" xmlns="http://www.w3.org/2000/svg">
<g opacity="0.5">
<path d="M14.9308 14.7614L12.5468 12.398C13.6086 11.1164 14.2509 9.45589 14.2509 7.64329C14.2509 3.59689 11.0541 0.304688 7.12501 0.304688C3.1959 0.304688 0 3.59689 0 7.64329C0 11.6897 3.19677 14.9819 7.12589 14.9819C8.91828 14.9819 10.5569 14.2952 11.8101 13.1666L14.2046 15.5399C14.3021 15.637 14.4325 15.6913 14.5681 15.6911C14.7053 15.6911 14.8434 15.6353 14.9457 15.5255C15.1467 15.3095 15.1397 14.9675 14.9308 14.7614ZM7.12501 13.9019C3.77443 13.9019 1.04782 11.0948 1.04782 7.64329C1.04782 4.19269 3.77356 1.38469 7.12501 1.38469C10.4765 1.38469 13.2022 4.19179 13.2022 7.64329C13.2022 11.0948 10.4765 13.9019 7.12501 13.9019Z" fill="#464646"/>
<path d="M11.5846 8.17961C11.2953 8.17961 11.0603 7.93751 11.0603 7.63961C11.0603 5.40491 9.29496 3.58781 7.12591 3.58781C6.83665 3.58781 6.60156 3.34571 6.60156 3.04781C6.60156 2.74991 6.83665 2.50781 7.12591 2.50781C9.87349 2.50781 12.109 4.81001 12.109 7.63961C12.109 7.93841 11.8739 8.17961 11.5846 8.17961Z" fill="#464646"/>
</g>
</svg>
