<svg width="30" height="30" viewBox="0 0 30 30" fill="none" xmlns="http://www.w3.org/2000/svg">
<path d="M16.6593 17.3256C14.5493 17.3256 12.8334 15.6098 12.8334 13.4997C12.8334 11.3897 14.5493 9.67383 16.6593 9.67383C18.7694 9.67383 20.4852 11.3897 20.4852 13.4997C20.4852 15.6098 18.7694 17.3256 16.6593 17.3256ZM16.6593 11.2938C15.443 11.2938 14.4534 12.2834 14.4534 13.4997C14.4534 14.7161 15.443 15.7056 16.6593 15.7056C17.8757 15.7056 18.8652 14.7161 18.8652 13.4997C18.8652 12.2834 17.8757 11.2938 16.6593 11.2938Z" fill="#ED1E26"/>
<path d="M16.6593 25.3504C15.6873 25.3504 14.7166 25.2303 13.7743 24.9954C13.5964 24.9509 13.4389 24.8473 13.3276 24.7017C13.2162 24.556 13.1576 24.3768 13.1614 24.1935C13.1614 24.1732 13.1628 24.153 13.1641 24.1314C13.1547 22.7449 12.0234 21.619 10.6342 21.619C10.1631 21.619 9.70003 21.7527 9.29638 22.0065C9.14123 22.1038 8.95766 22.1455 8.7757 22.1249C8.59373 22.1043 8.42414 22.0226 8.29468 21.8931C6.80698 20.4108 5.73778 18.5572 5.20453 16.5349C5.10868 16.1704 5.27608 15.787 5.60953 15.6115C6.03073 15.3888 6.37903 15.0553 6.61663 14.6463C6.78401 14.3593 6.89275 14.042 6.93655 13.7127C6.98035 13.3834 6.95833 13.0486 6.87178 12.7279C6.70212 12.0843 6.28411 11.5342 5.70943 11.1984C5.68918 11.1889 5.67163 11.1795 5.65408 11.17C5.49468 11.0808 5.37001 10.9405 5.30019 10.7717C5.23038 10.603 5.21951 10.4156 5.26933 10.2399C5.82558 8.29991 6.86729 6.53383 8.29603 5.10851C8.42565 4.97919 8.59532 4.89768 8.77728 4.87733C8.95925 4.85697 9.14274 4.89897 9.29773 4.99646C9.70138 5.24891 10.1644 5.38256 10.6356 5.38256C12.0247 5.38256 13.156 4.25666 13.1655 2.87021C13.1641 2.84861 13.1628 2.82836 13.1628 2.80811C13.1593 2.62485 13.2179 2.4458 13.3292 2.30017C13.4405 2.15454 13.5979 2.05092 13.7757 2.00621C15.6603 1.53506 17.661 1.53371 19.5469 2.00621C19.9128 2.09801 20.1679 2.43011 20.1598 2.80811C20.1598 2.82836 20.1585 2.84861 20.1571 2.86886C20.1666 4.25531 21.2979 5.38121 22.687 5.38121C23.1582 5.38121 23.6212 5.24756 24.0249 4.99511C24.18 4.89782 24.3636 4.85606 24.5456 4.87666C24.7275 4.89726 24.8971 4.979 25.0266 5.10851C26.5129 6.58943 27.5793 8.4385 28.1167 10.4667C28.2126 10.8312 28.0452 11.2132 27.7117 11.3901C27.2905 11.6128 26.9422 11.9463 26.706 12.3553C26.0107 13.5568 26.4171 15.0999 27.6118 15.8032C27.6307 15.8127 27.6469 15.8208 27.6631 15.8302C27.824 15.9187 27.9501 16.0592 28.0207 16.2286C28.0913 16.3981 28.1023 16.5865 28.0519 16.7631C27.4957 18.703 26.454 20.4691 25.0252 21.8944C24.8956 22.0237 24.7259 22.1052 24.544 22.1256C24.362 22.146 24.1785 22.1039 24.0235 22.0065C23.6226 21.7548 23.159 21.621 22.6857 21.6204C21.2965 21.6204 20.1652 22.7463 20.1558 24.1327C20.1571 24.1543 20.1585 24.1746 20.1585 24.1935C20.1652 24.5715 19.9114 24.9036 19.5456 24.9954C18.6015 25.2309 17.6322 25.3501 16.6593 25.3504ZM14.7409 23.5495C16.009 23.7898 17.3109 23.7898 18.579 23.5495C18.8706 21.5448 20.6013 19.999 22.6857 19.999C23.2365 19.999 23.7778 20.1097 24.2841 20.3217C25.1816 19.3176 25.8725 18.1464 26.3172 16.8751C24.7282 15.6183 24.2598 13.3476 25.3033 11.544C25.5787 11.0674 25.9473 10.653 26.3847 10.3209C25.9439 8.97498 25.2286 7.73519 24.2841 6.67991C23.778 6.89267 23.2346 7.00236 22.6857 7.00256C20.6013 7.00256 18.8706 5.45681 18.579 3.45206C17.3109 3.21176 16.009 3.21176 14.7409 3.45206C14.4493 5.45681 12.72 7.00121 10.6356 7.00121C10.0848 7.00121 9.54208 6.89051 9.03718 6.67856C8.13976 7.68302 7.44851 8.85406 7.00273 10.1251C8.59033 11.3806 9.06148 13.6527 8.01658 15.4576C7.74097 15.9331 7.37336 16.3489 6.93523 16.6807C7.37605 18.0262 8.09134 19.2655 9.03583 20.3203C9.54073 20.1084 10.0834 19.9977 10.6342 19.9977C12.72 19.999 14.4493 21.5434 14.7409 23.5495ZM5.69323 11.1903C5.69458 11.1903 5.69593 11.1916 5.69593 11.1916C5.69593 11.1916 5.69458 11.1903 5.69323 11.1903Z" fill="white"/>
</svg>
