<svg width="16" height="17" viewBox="0 0 16 17" fill="none" xmlns="http://www.w3.org/2000/svg">
<path d="M15.9987 8.17657C15.897 12.5702 12.3057 16.095 7.84786 16.021C5.72357 15.9776 3.7035 15.0922 2.23206 13.5594C0.760612 12.0267 -0.041683 9.97216 0.00166988 7.84786C0.0450228 5.72357 0.930472 3.70351 2.46323 2.23206C3.99599 0.760612 6.0505 -0.041683 8.17479 0.00166988C12.56 0.102022 16.0781 3.73165 15.9987 8.17657ZM11.0324 10.1417C11.2453 8.72853 11.2453 7.29144 11.0324 5.87829H4.93542C4.72312 7.29149 4.72312 8.72848 4.93542 10.1417H11.0324ZM10.8147 4.79939C10.5355 3.73789 10.1716 2.73883 9.46108 1.90747C9.26501 1.68036 9.03818 1.48175 8.78716 1.3174C8.27782 0.981552 7.73725 0.970402 7.21498 1.29554C7.00318 1.42738 6.80844 1.58481 6.63517 1.7643C6.01744 2.40923 5.6584 3.20268 5.37742 4.03582C5.29401 4.2838 5.22756 4.53758 5.1504 4.79939H10.8147ZM5.16378 11.2219C5.1665 11.2519 5.17096 11.2817 5.17716 11.3111C5.37831 12.0957 5.65707 12.8494 6.0839 13.5412C6.38228 14.0242 6.73641 14.4582 7.23906 14.7454C7.71584 15.017 8.19977 15.0273 8.68681 14.7677C9.01195 14.5946 9.27509 14.3484 9.50702 14.0679C9.92939 13.5559 10.2287 12.9734 10.4566 12.3548C10.5904 11.9873 10.7032 11.6108 10.8299 11.2228L5.16378 11.2219ZM3.86054 10.1417C3.65895 8.72965 3.65895 7.29613 3.86054 5.88409C3.81995 5.87963 3.79855 5.87516 3.77758 5.87516C3.01535 5.87516 2.25357 5.87517 1.49179 5.8716C1.38831 5.8716 1.362 5.9162 1.33747 5.99916C1.06228 6.91035 0.964604 7.84028 1.08413 8.78404C1.14212 9.24298 1.25629 9.69434 1.34371 10.1417H3.86054ZM14.5938 5.88676H12.1064C12.3071 7.29483 12.3071 8.72425 12.1064 10.1323C12.1274 10.1393 12.1491 10.1444 12.171 10.1475C12.9444 10.1475 13.7173 10.1475 14.4903 10.1511C14.592 10.1511 14.6138 10.0966 14.6268 10.0239C14.7244 9.49542 14.856 8.97002 14.9077 8.43704C14.9938 7.57089 14.8618 6.72035 14.5938 5.88676ZM10.573 1.57118C10.5837 1.60155 10.5961 1.63133 10.61 1.66038C11.2221 2.58499 11.6555 3.61612 11.8878 4.70038C11.9119 4.81233 11.9743 4.80742 12.0546 4.80742C12.6053 4.80742 13.1561 4.80742 13.7071 4.80742H14.1428C13.3257 3.30571 12.1581 2.24331 10.573 1.57118ZM14.1411 11.217C13.4074 11.217 12.7076 11.217 12.0078 11.2148C11.9012 11.2148 11.8994 11.279 11.8834 11.3517C11.6503 12.4005 11.2319 13.3993 10.6479 14.3012C10.6256 14.336 10.6078 14.373 10.5877 14.4091C12.1554 13.7816 13.3231 12.7192 14.1428 11.217H14.1411ZM1.82183 11.217C2.64115 12.7192 3.80925 13.782 5.37786 14.4434C5.37658 14.4254 5.37359 14.4074 5.36894 14.3899C4.75004 13.4507 4.30863 12.406 4.0666 11.3076C4.05462 11.284 4.03705 11.2638 4.01543 11.2486C3.99382 11.2335 3.96881 11.2238 3.94261 11.2206C3.24906 11.2152 2.55507 11.217 1.82362 11.217H1.82183ZM1.82183 4.80563C2.55507 4.80563 3.25531 4.80563 3.95599 4.80787C4.06303 4.80787 4.06303 4.7423 4.07953 4.67005C4.31218 3.62102 4.73074 2.62211 5.31542 1.72059C5.33728 1.68669 5.35512 1.64967 5.37474 1.61399C3.81014 2.24153 2.64427 3.30348 1.82362 4.80563H1.82183Z" fill="black"/>
</svg>
